<?xml version="1.0" encoding="UTF-8" standalone="no"?>
<!-- Created with Inkscape (http://www.inkscape.org/) -->

<svg
   xmlns:dc="http://purl.org/dc/elements/1.1/"
   xmlns:cc="http://creativecommons.org/ns#"
   xmlns:rdf="http://www.w3.org/1999/02/22-rdf-syntax-ns#"
   xmlns:svg="http://www.w3.org/2000/svg"
   xmlns="http://www.w3.org/2000/svg"
   xmlns:sodipodi="http://sodipodi.sourceforge.net/DTD/sodipodi-0.dtd"
   xmlns:inkscape="http://www.inkscape.org/namespaces/inkscape"
   id="svg2"
   version="1.1"
   inkscape:version="0.91 r"
   width="712.5"
   height="922.5"
   viewBox="0 0 712.5 922.5"
   sodipodi:docname="pineapple.svg">
  <metadata
     id="metadata8">
    <rdf:RDF>
      <cc:Work
         rdf:about="">
        <dc:format>image/svg+xml</dc:format>
        <dc:type
           rdf:resource="http://purl.org/dc/dcmitype/StillImage" />
        <dc:title />
      </cc:Work>
    </rdf:RDF>
  </metadata>
  <defs
     id="defs6" />
  <sodipodi:namedview
     pagecolor="#ffffff"
     bordercolor="#666666"
     borderopacity="1"
     objecttolerance="10"
     gridtolerance="10"
     guidetolerance="10"
     inkscape:pageopacity="0"
     inkscape:pageshadow="2"
     inkscape:window-width="1440"
     inkscape:window-height="846"
     id="namedview4"
     showgrid="false"
     inkscape:zoom="0.36179339"
     inkscape:cx="-93.742609"
     inkscape:cy="137.68938"
     inkscape:window-x="0"
     inkscape:window-y="24"
     inkscape:window-maximized="1"
     inkscape:current-layer="svg2" />
  <path
     inkscape:connector-curvature="0"
     id="path4885"
     d="m 300.2125,774.83502 c -2.99738,-2.43101 3.17147,-12.12937 9.19321,-14.45306 1.86857,-0.72105 5.33514,-0.64012 9.67003,0.22581 28.99531,5.79195 33.96314,7.66204 39.22615,14.76633 2.15376,2.90726 2.24596,3.55001 0.71552,4.98865 -25.25552,6.72173 -53.86979,-2.23477 -58.80491,-5.52773 z"
     style="fill:#08fdd8;fill-opacity:1"
     sodipodi:nodetypes="cssscc" />
  <path
     style="fill:#08fdd8;fill-opacity:1"
     d="m 408.26482,760.8775 c -7.13504,4.74626 -24.67088,6.64249 -33.81867,9.78304 -5.11449,2.16473 -8.62156,6.18099 -7.63782,8.74458 0.65488,1.7066 2.09233,1.92451 9.29795,1.40895 17.86918,-1.46584 38.59736,-3.95308 44.38962,-14.14809 0.72911,-2.18738 -5.44914,-5.88937 -12.23108,-5.78848 z"
     id="path4887"
     inkscape:connector-curvature="0"
     sodipodi:nodetypes="ccsccc" />
  <path
     inkscape:connector-curvature="0"
     id="path4891"
     d="m 279.22648,768.07581 c -20.22109,-6.16125 -34.17661,-20.55835 -32.86638,-32.42314 7.06941,-8.73074 18.36191,9.66628 25.81922,14.26758 7.4573,4.6013 11.83256,5.78005 16.7179,11.34414 7.80699,8.89168 10.55034,12.97267 -9.67074,6.81142 z"
     style="fill:#08fdd8;fill-opacity:1"
     sodipodi:nodetypes="zczsz" />
  <path
     inkscape:connector-curvature="0"
     id="path4893"
     d="m 363.39852,766.74976 c -0.35911,-0.58106 -3.65486,-2.4778 -7.32387,-4.215 -5.81189,-2.7518 -6.67094,-3.60654 -6.67094,-6.63744 0,-5.2504 4.04655,-9.36702 13.66937,-13.90612 15.98359,-7.53949 26.42981,-9.46853 36.35335,-6.71319 l 4.69441,1.30347 -0.76597,7.3284 c -0.42129,4.03061 -0.76597,8.62192 -0.76597,10.20289 -3.10213,9.45183 -13.80999,5.15276 -28.87762,10.60441 -6.39125,3.23869 -9.22247,3.79671 -10.31276,2.03258 z"
     style="fill:#08fdd8;fill-opacity:1"
     sodipodi:nodetypes="ssssscsccs" />
  <path
     inkscape:connector-curvature="0"
     id="path4895"
     d="m 292.64898,757.62354 c -1.44142,-2.33227 -5.45086,-5.77152 -9.18545,-7.87919 -6.55635,-3.70019 -16.25509,-11.63524 -16.25509,-13.29917 0,-0.47347 1.72127,-3.45953 3.82507,-6.63567 2.7401,-4.13681 5.39725,-6.45089 9.36784,-8.15839 5.01962,-2.15862 6.22413,-2.23964 12.76171,-0.85841 12.54157,2.64972 23.12869,12.02246 26.59677,23.54603 2.34124,7.77935 1.1014,9.71872 -6.9013,10.79514 -6.23281,0.83834 -13.01373,3.79818 -13.01373,5.68043 0,2.65904 -4.93206,0.47207 -7.19582,-3.19077 z"
     style="fill:#08fdd8;fill-opacity:1" />
  <path
     inkscape:connector-curvature="0"
     id="path4897"
     d="m 302.26111,747.26248 c 0.40258,-1.70537 2.90773,-4.48068 5.79457,-6.41951 7.94679,-5.33712 6.40492,-7.31085 -3.09326,-3.9597 -4.76641,1.68169 -4.91982,1.64722 -8.28137,-1.8615 -2.0432,-2.13264 -4.4123,-3.43349 -5.87221,-3.22435 -2.41752,0.34629 -2.4628,0.57178 -1.76943,8.81183 0.0559,0.66481 -0.26665,2.40793 -0.71688,3.87363 -0.68542,2.23145 -0.25733,2.78381 2.63216,3.39606 1.89789,0.40216 4.26662,1.21793 5.26384,1.81283 2.92288,1.74365 5.2813,0.7955 6.04258,-2.42929 z"
     style="fill:#08fdd8;fill-opacity:1" />
  <path
     inkscape:connector-curvature="0"
     id="path4899"
     d="m 426.17639,760.29715 c -1.3204,-0.76548 -5.67191,-1.97408 -9.67003,-2.68577 -7.02793,-1.25102 -7.28201,-1.42603 -7.65186,-5.27017 -0.60052,-6.24181 3.02882,-15.38238 7.75556,-19.5325 2.30685,-2.02546 4.93185,-3.68263 5.83334,-3.68263 0.90148,0 4.01022,-1.07593 6.90828,-2.39097 6.69546,-3.03814 13.18968,-3.07742 18.9967,-0.115 7.84179,4.00058 8.04868,4.80371 3.84115,14.91065 -3.83235,9.20572 -7.17047,13.26427 -14.54676,17.68629 -4.73422,2.83814 -7.91666,3.13787 -11.46638,1.07999 z"
     style="fill:#08fdd8;fill-opacity:1" />
  <path
     inkscape:connector-curvature="0"
     id="path4901"
     d="m 436.22513,749.04625 c 0.76336,-1.67539 2.7872,-3.57816 4.4974,-4.22838 3.17893,-1.20863 3.05467,-3.60425 -0.18693,-3.60425 -0.98973,0 -3.14101,-1.4475 -4.78063,-3.21667 l -2.98111,-3.21667 -2.70275,2.50633 c -1.48652,1.37848 -4.05704,2.68999 -5.71228,2.91448 -4.61622,0.62604 -4.67883,4.49119 -0.0876,5.40943 2.59052,0.5181 3.95315,1.62415 4.45262,3.61423 0.99832,3.97764 5.65816,3.86676 7.50131,-0.1785 z"
     style="fill:#08fdd8;fill-opacity:1" />
  <path
     inkscape:connector-curvature="0"
     id="path4905"
     d="m 330.67699,754.52444 c -0.40594,-0.65684 -1.50354,-4.13305 -2.43909,-7.72493 -1.70386,-6.5415 -6.25081,-15.75446 -10.44357,-21.1605 -4.66711,-6.01769 -1.74289,-11.23882 9.81893,-17.53156 6.58855,-3.58594 16.36291,-5.19892 23.44885,-3.8696 7.53473,1.41352 26.27526,20.85876 24.51748,25.43943 -0.35848,0.93421 -3.811,2.67399 -7.67226,3.86615 -13.39364,4.13532 -24.65104,12.3913 -27.35258,20.05992 -0.82193,2.33318 -8.55914,3.05464 -9.87776,0.92109 z"
     style="fill:#08fdd8;fill-opacity:1" />
  <path
     inkscape:connector-curvature="0"
     id="path4907"
     d="m 350.61247,734.56547 c 0,-1.66204 0.40795,-3.0302 0.90657,-3.04039 0.4986,-0.01 1.64386,-0.48569 2.54501,-1.05671 1.35178,-0.85656 1.28138,-1.58309 -0.40244,-4.15294 -1.25074,-1.90887 -1.72817,-4.09996 -1.23319,-5.65952 0.58841,-1.85389 -0.0576,-3.34668 -2.37954,-5.49857 -3.9194,-3.63237 -4.84198,-3.66927 -7.21013,-0.28828 -1.39857,1.99676 -2.90934,2.59535 -6.02136,2.38579 -5.51147,-0.37119 -6.5773,1.78148 -2.67403,5.4008 3.64435,3.37923 3.63496,3.34571 1.77329,6.32671 -2.18493,3.49864 -0.39876,6.59753 3.27175,5.67628 1.90235,-0.47745 4.05588,-0.069 5.69709,1.08056 3.81275,2.67055 5.72698,2.27823 5.72698,-1.17373 z"
     style="fill:#08fdd8;fill-opacity:1" />
  <path
     inkscape:connector-curvature="0"
     id="path4909"
     d="m 257.1576,731.40276 c -1.20667,-0.70182 -4.94712,-1.09323 -8.31211,-0.8698 -5.46351,0.36278 -6.37976,0.0585 -8.56296,-2.84323 -3.33535,-4.90044 -11.46616,-27.7269 -7.39424,-40.1668 1.43397,-3.73687 9.44119,-1.34798 14.47702,4.31911 9.47045,10.65761 18.73238,34.60974 15.08327,39.00664 -1.83944,2.21637 -2.34239,2.26905 -5.29096,0.55408 z"
     style="fill:#08fdd8;fill-opacity:1"
     sodipodi:nodetypes="csccsscc" />
  <path
     inkscape:connector-curvature="0"
     id="path4911"
     d="m 398.35826,730.22615 c -3.32407,-1.21165 -7.76896,-2.22683 -9.8775,-2.25592 -3.2398,-0.0446 -4.36339,-0.92131 -7.25253,-5.65815 -1.88034,-3.08289 -6.06668,-8.50672 -9.30299,-12.05293 -6.19036,-6.78319 -6.50619,-8.69057 -1.8169,-10.97297 10.63844,-5.17799 17.72309,-7.63255 22.05003,-7.63951 7.75039,-0.0125 25.51298,3.75203 28.56447,6.05379 2.67685,2.01914 2.7059,2.27143 1.15821,10.05783 -1.21466,6.111 -1.26132,8.70266 -0.19858,11.03507 1.31293,2.88158 1.03433,3.27517 -5.09274,7.19461 -3.5649,2.28043 -6.84572,4.73533 -7.2907,5.45532 -1.06916,1.72994 -3.64052,1.44389 -10.94077,-1.21714 z"
     style="fill:#08fdd8;fill-opacity:1" />
  <path
     inkscape:connector-curvature="0"
     id="path4913"
     d="m 401.97694,719.75823 c -0.49158,-1.82824 -0.8062,-6.45173 -0.69916,-10.2744 0.10707,-3.8227 -0.11729,-6.95034 -0.4984,-6.95034 -0.38118,0 -2.05399,0.89171 -3.71736,1.9816 -2.87161,1.88156 -3.1715,1.84333 -5.93974,-0.75731 -3.25453,-3.05747 -6.66469,-2.5622 -6.66469,0.96794 0,1.24746 1.08787,3.25262 2.41751,4.45592 1.35012,1.22184 2.4175,3.72292 2.4175,5.66466 0,2.26441 0.73765,3.69752 2.11533,4.10961 1.16342,0.34802 3.47517,1.36908 5.1372,2.26906 4.99816,2.70645 6.44859,2.31478 5.43181,-1.46674 z"
     style="fill:#08fdd8;fill-opacity:1" />
  <path
     inkscape:connector-curvature="0"
     id="path4915"
     d="m 266.8884,722.17575 c -0.25449,-0.49862 -1.76983,-4.85014 -3.36742,-9.67005 -1.5976,-4.8199 -3.31013,-8.76346 -3.80564,-8.76346 -0.4955,0 -2.58723,-3.39963 -4.64829,-7.55471 -2.06103,-4.1551 -4.57159,-8.46614 -5.57898,-9.58011 -4.6765,-5.17124 2.75196,-11.18082 12.21707,-9.88348 6.47558,0.88757 10.63105,3.87786 15.84575,11.40266 3.56137,5.13908 10.52352,23.79461 9.49879,25.45265 -0.54619,0.88376 -17.84373,9.50306 -19.07108,9.50306 -0.34512,0 -0.83571,-0.40797 -1.0902,-0.90656 z"
     style="fill:#08fdd8;fill-opacity:1" />
  <path
     inkscape:connector-curvature="0"
     id="path4917"
     d="m 274.75303,706.15975 c 1.95292,0 2.24033,-0.51343 1.52245,-2.7197 -0.48671,-1.49583 -1.0261,-4.21553 -1.19863,-6.04377 -0.17253,-1.82824 -0.3817,-3.78398 -0.4648,-4.34607 -0.11909,-0.80542 -7.46495,-0.95708 -13.74957,-0.28386 -1.95471,0.20938 -0.76957,3.60394 1.51095,4.32775 2.61535,0.83007 3.02859,2.60153 1.25938,5.39885 -1.78505,2.82236 1.02865,5.20364 5.16996,4.37537 1.94857,-0.38971 4.62619,-0.70857 5.95026,-0.70857 z"
     style="fill:#08fdd8;fill-opacity:1" />
  <path
     inkscape:connector-curvature="0"
     id="path4919"
     d="m 428.16785,717.87802 c -1.68617,-2.03171 -0.15172,-15.70398 2.28481,-20.35817 2.01945,-3.85747 11.63776,-16.18826 17.02012,-21.81995 5.87421,-6.14634 10.15576,-6.18843 16.8225,-0.16544 6.33172,5.72031 7.64227,8.18646 5.99054,11.27271 -1.47696,2.75973 -7.26749,6.05629 -10.63811,6.05629 -2.97732,0 -6.29114,-3.71118 -6.29114,-7.04553 0,-1.52705 -0.75817,-2.62451 -1.81313,-2.62451 -0.99722,0 -1.81313,0.54394 -1.81313,1.20876 0,0.66481 -2.17576,1.20875 -4.83502,1.20875 -4.57519,0 -4.83501,0.19648 -4.83501,3.65618 0,2.78772 0.7178,3.92909 3.02188,4.8051 2.12204,0.8068 3.02189,2.05768 3.02189,4.20072 0,3.61518 3.15876,4.15319 5.5095,0.93838 0.84995,-1.16236 1.94913,-1.70966 2.44262,-1.21616 0.49349,0.49348 -0.0446,1.93798 -1.19575,3.21 -1.15114,1.272 -3.59358,5.2167 -5.42761,8.76604 -2.81854,5.45455 -3.97445,6.56797 -7.4689,7.19433 -2.27384,0.40757 -5.53449,1.12465 -7.24585,1.59348 -2.09164,0.57303 -3.58313,0.28427 -4.55021,-0.88098 z"
     style="fill:#08fdd8;fill-opacity:1" />
  <path
     inkscape:connector-curvature="0"
     id="path4921"
     d="m 299.117,717.06701 c -1.98376,-0.80185 -2.71053,-2.47015 -3.3144,-7.60817 -0.81209,-6.9096 -7.31672,-22.09017 -11.9204,-27.81991 -3.16898,-3.94413 -2.40768,-5.95926 3.86503,-10.23086 8.44716,-5.75236 34.24112,-1.4117 43.31215,7.28865 4.64184,4.45215 11.77434,17.63833 10.27791,19.00125 -0.54957,0.50053 -4.80681,2.14221 -9.46051,3.64818 -8.89118,2.87723 -12.20417,4.79812 -21.23098,12.30994 -5.68337,4.72949 -7.17489,5.17077 -11.5288,3.41092 z"
     style="fill:#08fdd8;fill-opacity:1" />
  <path
     inkscape:connector-curvature="0"
     id="path4923"
     d="m 318.77268,701.8641 c 0.3964,-1.03296 -0.24779,-4.02589 -1.43151,-6.65092 -2.00356,-4.44306 -2.01421,-4.9253 -0.15427,-6.98051 1.09888,-1.21425 1.99796,-2.57285 1.99796,-3.01911 0,-1.31937 -4.68422,-0.92605 -7.12505,0.59828 -1.84396,1.15158 -2.86666,0.93026 -5.586,-1.20876 -1.83083,-1.44013 -4.0884,-2.61842 -5.01682,-2.61842 -2.68264,0 -3.30533,3.50504 -1.06291,5.98291 1.29084,1.42636 1.9053,3.7382 1.65753,6.23642 -0.37061,3.73729 -0.11043,4.03677 4.44133,5.11238 2.65926,0.62841 5.90795,1.88129 7.2193,2.7842 3.0812,2.12153 4.17522,2.07042 5.06044,-0.23647 z"
     style="fill:#08fdd8;fill-opacity:1" />
  <path
     inkscape:connector-curvature="0"
     id="path4925"
     d="m 350.59039,696.79191 c -1.43827,-1.82825 -3.33269,-5.04141 -4.20982,-7.14034 -0.87711,-2.09896 -4.36331,-7.33918 -7.74709,-11.64496 -3.38378,-4.30578 -6.15232,-8.33789 -6.15232,-8.96026 0,-0.62236 1.93555,-3.39283 4.30123,-6.1566 5.00825,-5.85101 10.02168,-7.59419 22.16985,-7.70851 9.80993,-0.0924 11.52908,0.3977 20.82614,5.93593 8.41263,5.01139 10.11381,7.38601 7.72974,10.78975 -0.91823,1.31097 -1.84425,4.52271 -2.05784,7.13722 -0.36792,4.50393 -0.76799,4.93447 -7.61569,8.19551 -3.97507,1.893 -9.89348,5.56458 -13.15201,8.15908 -7.02189,5.59092 -10.51793,5.93653 -14.09219,1.39318 z"
     style="fill:#08fdd8;fill-opacity:1" />
  <path
     inkscape:connector-curvature="0"
     id="path4927"
     d="m 363.0022,682.33884 c 2.75327,-0.52062 3.32407,-1.25509 3.32407,-4.27715 0,-2.00672 1.13227,-5.48062 2.51615,-7.7198 2.25907,-3.65525 2.31454,-4.14856 0.54287,-4.82841 -1.19611,-0.459 -3.12268,0.32258 -4.89171,1.98451 -2.77025,2.60254 -3.11458,2.64672 -6.78239,0.87035 -6.97697,-3.37904 -9.29934,-0.29608 -3.96844,5.26818 2.96704,3.09693 3.02986,3.42059 1.20452,6.20642 -2.21996,3.38807 -1.25117,5.04834 2.28261,3.91184 1.34654,-0.43305 3.94407,-1.07023 5.77232,-1.41594 z"
     style="fill:#08fdd8;fill-opacity:1" />
  <path
     inkscape:connector-curvature="0"
     id="path4929"
     d="m 424.16114,691.06645 c -1.32009,-1.32009 -20.1212,-5.4197 -24.93425,-5.43696 -6.11212,-0.0219 -7.07054,-1.54227 -4.62394,-7.33499 2.44383,-5.7862 9.05325,-11.63874 22.491,-19.91545 6.31574,-3.89005 12.78039,-8.0573 14.36588,-9.26054 3.16313,-2.40054 8.72017,-2.8556 12.1906,-0.99829 1.22237,0.65419 3.86459,3.8582 5.87158,7.12001 l 3.64913,5.93056 -8.06638,8.31829 c -4.4365,4.57505 -10.37527,11.43392 -13.19724,15.24195 -4.82388,6.50942 -6.33583,7.74597 -7.74638,6.33542 z"
     style="fill:#08fdd8;fill-opacity:1" />
  <path
     inkscape:connector-curvature="0"
     id="path4931"
     d="m 435.52301,675.10917 c 0.49618,-0.28283 0.0942,-2.07673 -0.89342,-3.98646 -1.07058,-2.07029 -1.50768,-4.91169 -1.08255,-7.03733 0.85161,-4.25805 -1.56625,-6.46007 -3.77563,-3.43857 -0.80344,1.09878 -2.83008,1.99779 -4.50363,1.99779 -1.67354,0 -3.77169,0.87826 -4.66254,1.95167 -1.38229,1.66556 -1.25593,2.24629 0.86211,3.96137 1.36504,1.10533 2.85904,3.5124 3.32,5.34905 0.77919,3.10453 1.15436,3.28228 5.33583,2.528 2.47374,-0.44622 4.90367,-1.0427 5.39983,-1.32552 z"
     style="fill:#08fdd8;fill-opacity:1" />
  <path
     inkscape:connector-curvature="0"
     id="path4933"
     d="m 233.64588,678.71153 c -2.28081,-0.4383 -5.88137,-5.92543 -7.53509,-10.57938 -1.06415,-4.59605 -1.41126,-10.79312 0.3815,-22.75836 0.63717,-4.7862 3.70769,-10.53053 5.62887,-10.53053 4.47278,0 14.59678,18.90473 16.24697,30.33824 0.7737,5.36068 0.6282,5.71606 -4.08285,9.97222 -2.68684,2.4274 -5.56352,4.33936 -6.39261,4.24882 -0.82911,-0.0905 -2.74016,-0.40149 -4.24679,-0.69101 z"
     style="fill:#08fdd8;fill-opacity:1"
     sodipodi:nodetypes="cccssscc" />
  <path
     inkscape:connector-curvature="0"
     id="path4935"
     d="m 457.23477,659.33216 c 4.78007,-6.36297 11.04039,-12.47137 19.83339,-19.6539 2.79597,0 2.87548,2.11533 0.70363,18.72042 -1.55788,11.91102 -2.49384,15.78308 -3.8794,16.04894 -6.93155,-2.56699 -17.67938,-9.65483 -16.65762,-15.11546 z"
     style="fill:#08fdd8;fill-opacity:1"
     sodipodi:nodetypes="ccscc" />
  <path
     inkscape:connector-curvature="0"
     id="path4937"
     d="m 267.81282,671.66661 c -1.99445,-0.91325 -5.37494,-1.68498 -7.51219,-1.71496 -4.45957,-0.0627 -5.75373,-1.87519 -6.71054,-9.3988 -0.3577,-2.81251 -2.3578,-7.88864 -4.44471,-11.28028 -2.08692,-3.39168 -3.50449,-7.07386 -3.15015,-8.18266 0.35432,-1.10881 2.6045,-3.57651 5.00042,-5.48377 3.6247,-2.88544 5.15021,-3.36123 9.08479,-2.83349 9.72735,1.30471 13.21744,4.30261 19.41679,16.67862 3.13531,6.25911 5.7325,12.2217 5.77153,13.25019 0.10118,2.66426 -8.63928,10.84089 -11.46313,10.72375 -1.3016,-0.054 -3.99837,-0.84537 -5.99281,-1.7586 z"
     style="fill:#08fdd8;fill-opacity:1" />
  <path
     inkscape:connector-curvature="0"
     id="path4939"
     d="m 270.83469,659.97824 c 0,-1.87561 0.64722,-4.44654 1.43823,-5.71317 1.92207,-3.07773 -0.55115,-6.12552 -4.97073,-6.12552 -1.78009,0 -3.92585,-0.67993 -4.76839,-1.51095 -1.22726,-1.21047 -1.83594,-1.09948 -3.06083,0.55805 -1.38225,1.87049 -1.78036,1.89291 -4.14927,0.23366 -2.37057,-1.66041 -2.62032,-1.64537 -2.62032,0.15786 0,1.09626 1.08789,3.37622 2.41752,5.06657 1.32962,1.69035 2.4175,4.54116 2.4175,6.33515 0,4.30874 0.16352,4.40855 7.22154,4.40855 5.85836,0 6.07475,-0.12147 6.07475,-3.4102 z"
     style="fill:#08fdd8;fill-opacity:1" />
  <path
     inkscape:connector-curvature="0"
     id="path4941"
     d="m 318.95947,662.01629 c -0.34558,-0.34557 -5.68852,-0.75354 -11.87321,-0.90658 l -11.24486,-0.27824 -4.68072,-8.46128 c -7.9013,-14.28316 -7.72712,-13.75725 -5.73295,-17.31008 2.78048,-4.95381 9.20859,-8.67813 14.9782,-8.67813 8.62177,0 18.90527,2.4668 23.80748,5.71093 4.84065,3.2034 12.19895,12.29084 13.57649,16.76691 1.10705,3.59714 -9.77585,13.78478 -14.72553,13.78478 -1.91213,0 -3.75933,-0.28274 -4.1049,-0.62831 z"
     style="fill:#08fdd8;fill-opacity:1" />
  <path
     inkscape:connector-curvature="0"
     id="path4943"
     d="m 309.60321,654.18332 c 3.42396,0 3.5105,-0.15178 3.27359,-5.74158 -0.13383,-3.15787 0.20104,-6.69348 0.74417,-7.8569 1.29224,-2.76805 -2.43268,-2.91057 -5.4197,-0.20736 -1.92288,1.7402 -2.38192,1.72869 -5.22006,-0.13094 -2.90851,-1.90573 -3.16256,-1.9066 -3.88909,-0.0134 -0.42751,1.11409 -0.0889,3.31209 0.75268,4.88442 0.84148,1.57234 1.17635,3.78035 0.74412,4.90668 -0.98253,2.56046 1.48019,5.70052 3.77903,4.81837 0.9451,-0.36262 3.30096,-0.65934 5.23526,-0.65934 z"
     style="fill:#08fdd8;fill-opacity:1" />
  <path
     inkscape:connector-curvature="0"
     id="path4945"
     d="m 389.82527,657.44516 c -3.36353,-2.79124 -7.89372,-6.43482 -10.0671,-8.09685 l -3.9516,-3.02189 6.04767,-8.91636 c 5.96534,-8.79496 11.93973,-13.68909 19.27498,-15.78979 2.19409,-0.62835 6.11761,-0.0977 11.90395,1.61028 6.70515,1.97908 10.0093,3.81706 14.80724,8.2367 3.39685,3.12904 6.15826,6.12059 6.13645,6.64791 -0.0502,1.21298 -16.76795,12.54426 -24.6484,16.70659 -3.27378,1.72917 -7.2907,4.19669 -8.92648,5.48341 -1.63577,1.28669 -3.30871,2.31143 -3.71768,2.27721 -0.40896,-0.0343 -3.49551,-2.346 -6.85903,-5.13721 z"
     style="fill:#08fdd8;fill-opacity:1" />
  <path
     inkscape:connector-curvature="0"
     id="path4947"
     d="m 409.28212,651.69286 c 0.43569,-0.70495 0.1197,-2.90521 -0.70223,-4.88949 -1.11409,-2.68966 -1.15533,-4.35192 -0.16201,-6.53203 1.7326,-3.80262 -0.0561,-4.88962 -3.90066,-2.37052 -2.33104,1.52734 -3.52117,1.65694 -5.49851,0.59872 -3.59453,-1.92374 -5.2501,-0.40093 -4.39399,4.04157 0.40121,2.08193 0.86144,4.87319 1.02275,6.20282 0.23348,1.92457 1.19686,2.4175 4.72476,2.4175 2.4373,0 4.83971,0.40795 5.33865,0.90658 1.27268,1.2718 2.64229,1.12792 3.57124,-0.37515 z"
     style="fill:#08fdd8;fill-opacity:1" />
  <path
     inkscape:connector-curvature="0"
     id="path4949"
     d="m 452.41792,647.70747 c -3.11396,-4.54499 -11.83901,-4.39746 -11.05379,-11.9842 7.01703,-16.02089 29.63633,-46.09635 33.77452,-41.88809 6.03415,19.22204 -3.42661,38.63917 -3.94863,40.47168 -1.05196,3.69289 -12.70181,17.46375 -14.73487,17.45069 -0.707,-0.005 -2.52376,-1.82709 -4.03723,-4.05008 z"
     style="fill:#08fdd8;fill-opacity:1"
     sodipodi:nodetypes="cccscc" />
  <path
     inkscape:connector-curvature="0"
     id="path4951"
     d="m 339.02773,641.79378 c -2.3577,-3.28177 -6.49222,-8.35952 -9.18782,-11.28388 l -4.90107,-5.31704 5.13506,-7.75411 c 6.62698,-10.00698 9.98839,-12.37045 21.05089,-14.80125 8.44716,-1.85611 9.45069,-1.85591 14.31817,0.002 5.53151,2.1125 20.22338,15.36598 20.22338,18.24342 0,0.91742 -4.21553,7.27992 -9.36785,14.13888 l -9.36784,12.47087 -11.80808,0.13346 -11.80808,0.13349 -4.28676,-5.96684 z"
     style="fill:#08fdd8;fill-opacity:1" />
  <path
     inkscape:connector-curvature="0"
     id="path4953"
     d="m 354.91427,636.69679 c 1.47929,-1.11766 3.7469,-1.52422 6.13637,-1.1002 5.03467,0.89339 6.25498,-1.3682 2.75088,-5.09813 -2.49616,-2.65703 -2.63167,-3.36194 -1.3354,-6.94668 0.79345,-2.19427 1.44264,-4.35893 1.44264,-4.81034 0,-1.54136 -2.6369,-0.82363 -5.63329,1.53333 -2.44266,1.9214 -3.5264,2.1109 -5.89643,1.03103 -2.20196,-1.00327 -3.36194,-0.94275 -4.79965,0.25044 -1.69255,1.40471 -1.55511,1.9292 1.2813,4.88979 2.63176,2.74697 2.95111,3.73876 1.86013,5.77729 -2.96855,5.54676 -0.58816,8.08611 4.19345,4.47346 z"
     style="fill:#08fdd8;fill-opacity:1" />
  <path
     inkscape:connector-curvature="0"
     id="path4955"
     d="m 236.98959,631.27503 c -0.99722,-0.5547 -3.30897,-1.59894 -5.13721,-2.32051 -4.32387,-1.70657 -4.48451,-5.57548 -0.24608,-5.92626 1.69289,-0.14011 4.36222,0.58672 5.93183,1.61517 3.71331,2.43304 5.20047,0.29163 2.57754,-3.71148 -1.05453,-1.60941 -1.91733,-3.95924 -1.91733,-5.22184 0,-1.31396 -2.06757,-3.72847 -4.83502,-5.64632 -4.18833,-2.90251 -4.83501,-3.95805 -4.83501,-7.89195 0,-5.45479 2.1348,-6.67323 7.62228,-4.3504 5.58914,2.36586 7.72391,5.29874 11.11597,15.27179 4.02595,11.83677 3.90614,13.75224 -1.0518,16.81643 -4.34173,2.68332 -6.32746,2.97723 -9.22517,1.36537 z"
     style="fill:#08fdd8;fill-opacity:1" />
  <path
     inkscape:connector-curvature="0"
     id="path4957"
     d="m 432.27631,627.66543 c -2.55658,-2.61817 -7.29046,-5.89693 -10.51972,-7.28612 -3.22927,-1.3892 -5.8714,-3.08164 -5.8714,-3.76099 0,-1.98326 3.69523,-8.7382 6.39587,-11.69173 4.47879,-4.89819 9.46431,-2.70176 8.97266,3.95301 -0.34773,4.70656 2.91851,5.30705 7.57134,1.39195 1.95988,-1.64913 4.26342,-3.2334 5.11901,-3.5206 1.20604,-0.40486 1.24989,-1.17778 0.19517,-3.43969 -0.74826,-1.60463 -1.96046,-4.41334 -2.69379,-6.24157 -1.50506,-3.75216 -2.8219,-4.14918 -5.01143,-1.51094 -1.53352,1.84778 -5.02949,2.42448 -6.39848,1.0555 -1.14982,-1.14983 2.40693,-7.31071 5.45177,-9.44341 5.04199,-3.53154 9.05961,-2.39679 17.38131,4.90926 4.25725,3.73767 7.73638,7.68124 7.73139,8.76347 -0.005,1.08222 -2.51408,4.41543 -5.57572,7.4071 -5.5749,5.44746 -12.99649,15.97822 -15.02985,21.32634 -1.46038,3.84108 -2.30509,3.63186 -7.71813,-1.91158 z"
     style="fill:#08fdd8;fill-opacity:1" />
  <path
     inkscape:connector-curvature="0"
     id="path4959"
     d="m 272.04346,628.73174 c -1.66205,-0.56065 -5.46235,-1.45558 -8.44511,-1.98875 -3.50083,-0.62576 -5.5564,-1.66089 -5.79892,-2.92015 -0.54341,-2.82179 6.70563,-4.11803 9.39889,-1.68066 3.04782,2.75824 3.9138,2.21083 3.01029,-1.9029 -0.63966,-2.91225 -0.23155,-4.34963 1.87,-6.58665 3.56502,-3.79477 2.49322,-7.16016 -1.67545,-5.26078 -2.44885,1.11577 -3.54969,0.87751 -6.6972,-1.44955 -2.87505,-2.12561 -4.10127,-2.45019 -5.18029,-1.37115 -1.07902,1.07902 -0.93399,1.94363 0.61268,3.6527 2.63388,2.9104 2.56504,5.41711 -0.21788,7.93562 -2.82372,2.55542 -4.32716,0.97453 -5.55872,-5.84515 -0.47609,-2.63628 -1.63489,-6.28087 -2.57512,-8.09907 -4.0834,-7.89641 0.39693,-13.09589 11.2846,-13.09589 6.09047,0 6.95319,0.35909 10.70584,4.456 2.24485,2.45082 4.40272,5.57847 4.79528,6.95034 0.39254,1.37188 2.57277,6.10948 4.84494,10.52799 2.27217,4.41852 4.13121,8.74027 4.13121,9.60389 0,2.58818 -6.31086,8.36022 -8.98961,8.22207 -1.37146,-0.0707 -3.8534,-0.58729 -5.51543,-1.14791 z"
     style="fill:#08fdd8;fill-opacity:1" />
  <path
     inkscape:connector-curvature="0"
     id="path4961"
     d="m 308.30608,622.75571 c -1.66203,-0.53228 -5.05482,-1.022 -7.53956,-1.08826 -5.19534,-0.13857 -6.92897,-2.36377 -16.2673,-20.88002 l -5.38446,-10.67644 4.01906,-4.67169 c 7.85643,-9.13219 14.35401,-13.45125 20.23604,-13.45125 2.8934,0 5.029,1.41906 9.95164,6.61266 7.35766,7.76265 17.9509,22.95099 17.9509,25.73757 0,1.06902 -2.05565,4.42641 -4.56815,7.46086 -2.51249,3.03444 -5.5167,7.01303 -6.67602,8.84126 -2.20727,3.48084 -5.56584,4.08691 -11.72215,2.11531 z"
     style="fill:#08fdd8;fill-opacity:1" />
  <path
     inkscape:connector-curvature="0"
     id="path4963"
     d="m 312.26244,610.36598 c 0.29235,-0.83101 0.0432,-2.8293 -0.55357,-4.44062 -0.59682,-1.61132 -0.74444,-4.48084 -0.32803,-6.37669 0.75022,-3.41576 0.71457,-3.4402 -3.93687,-2.6964 -3.44586,0.55103 -5.10368,0.25689 -6.23494,-1.10617 -1.70799,-2.05802 -4.9905,-1.39847 -4.9905,1.00272 0,0.84469 0.80964,2.20775 1.79924,3.02902 1.04041,0.86348 1.67763,3.09244 1.51093,5.28522 -0.25104,3.30218 0.0618,3.74332 2.42286,3.41526 1.49112,-0.20719 3.9239,0.47273 5.40616,1.51094 3.25904,2.28271 4.20852,2.35565 4.90472,0.37672 z"
     style="fill:#08fdd8;fill-opacity:1" />
  <path
     inkscape:connector-curvature="0"
     id="path4965"
     d="m 384.31974,610.85076 c -3.06747,-3.29369 -7.85294,-7.42513 -10.63434,-9.18095 -2.7814,-1.75583 -5.3637,-3.99139 -5.73844,-4.96793 -0.85068,-2.21687 3.39691,-12.8514 7.77302,-19.46098 3.76839,-5.6917 15.32998,-14.86018 18.97948,-15.05098 9.5292,-0.49815 13.27304,1.1196 22.85274,9.87489 7.56847,6.91714 8.20476,9.29163 3.9978,14.91856 -3.10951,4.15906 -8.19283,12.92754 -12.40596,21.39972 -2.39176,4.8096 -3.40172,5.67835 -7.38268,6.35042 -2.53652,0.4282 -6.24367,1.07719 -8.23812,1.44219 -3.16471,0.57916 -4.33614,-0.0987 -9.2035,-5.32493 z"
     style="fill:#08fdd8;fill-opacity:1" />
  <path
     inkscape:connector-curvature="0"
     id="path4967"
     d="m 406.51735,595.89482 c 8.16115,0.32419 9.20674,-1.58664 3.20622,-5.85938 -3.10309,-2.2096 -3.62724,-3.2504 -3.06147,-6.07922 0.85116,-4.25581 -0.75298,-5.36287 -4.35294,-3.00408 -1.86671,1.22311 -3.35103,1.44188 -4.56697,0.67312 -4.86476,-3.07566 -9.25916,0.63411 -5.5743,4.70585 1.07785,1.19101 1.95973,3.79978 1.95973,5.79728 0,4.35322 1.03711,5.63525 3.56313,4.40451 1.03194,-0.5028 5.00391,-0.78993 8.8266,-0.63808 z"
     style="fill:#08fdd8;fill-opacity:1" />
  <path
     inkscape:connector-curvature="0"
     id="path4969"
     d="m 334.86222,595.25656 c -4.02022,-7.28023 -7.50902,-12.30639 -12.35328,-17.79695 -2.49306,-2.82564 -4.53283,-5.90426 -4.53283,-6.84138 0,-2.18017 11.1146,-17.46955 14.7583,-20.30171 3.66743,-2.8506 10.09161,-4.87018 16.26071,-5.11192 5.90536,-0.23139 11.18653,3.42448 20.21777,13.99565 l 5.67558,6.64334 -3.10484,4.69174 c -1.70765,2.58045 -5.40196,9.23522 -8.20954,14.78836 l -5.10472,10.09663 -7.8569,2.14207 c -11.52421,3.1419 -12.84904,2.94793 -15.75025,-2.30583 z"
     style="fill:#08fdd8;fill-opacity:1" />
  <path
     inkscape:connector-curvature="0"
     id="path4971"
     d="m 345.17307,576.82306 c 1.20331,-1.32964 2.851,-2.41751 3.66155,-2.41751 0.92497,0 1.48083,-1.91289 1.4928,-5.1372 0.0108,-2.82547 0.41263,-6.90502 0.89363,-9.06566 1.10021,-4.94201 -0.15818,-4.98102 -4.2076,-0.13046 -2.75524,3.30034 -3.50869,3.6171 -5.75015,2.41751 -1.41869,-0.75927 -3.15913,-1.38049 -3.86766,-1.38049 -2.16376,0 -1.43447,4.17254 1.11011,6.35127 1.99043,1.70426 2.18763,2.60773 1.15942,5.3121 -2.31895,6.0993 1.26712,8.73645 5.5079,4.05044 z"
     style="fill:#08fdd8;fill-opacity:1" />
  <path
     inkscape:connector-curvature="0"
     id="path4973"
     d="m 453.73396,586.1859 c -17.54618,-5.60263 4.9035,-29.82218 3.65083,-44.4042 -1.29872,-4.88082 6.86279,-4.54331 13.47245,4.44442 7.65581,14.98227 4.8869,33.69875 2.50159,43.03121 -2.95989,3.13337 -5.83449,5.75639 -6.38089,5.69704 -0.53509,-0.0581 -8.55562,-6.8054 -13.24398,-8.76847 z"
     style="fill:#08fdd8;fill-opacity:1"
     sodipodi:nodetypes="ccccsc" />
  <path
     inkscape:connector-curvature="0"
     id="path4975"
     d="m 240.01146,588.23548 c -1.99443,-0.92813 -4.89638,-1.40593 -6.44874,-1.06175 -5.62415,1.24693 -7.45193,-0.35021 -7.45193,-6.51166 0,-5.79192 0.21939,-6.69647 5.18228,-21.36594 2.28276,-6.74745 3.40858,-8.54138 5.55819,-8.8567 5.74777,-0.84313 10.5381,5.40347 15.13455,19.73548 3.04485,9.49409 2.59293,14.47015 -1.58433,17.44464 -4.02949,2.86924 -5.37638,2.94908 -10.39002,0.61593 z"
     style="fill:#08fdd8;fill-opacity:1" />
  <path
     inkscape:connector-curvature="0"
     id="path4977"
     d="m 246.65962,582.94552 c 0,-0.62155 -0.54783,-2.57093 -1.21738,-4.332 -0.92413,-2.43063 -0.74042,-4.20701 0.76263,-7.37443 2.36307,-4.97979 1.58463,-6.19767 -2.71051,-4.24068 -2.60194,1.18552 -3.7006,1.10275 -6.08302,-0.45826 -3.88841,-2.54778 -5.49535,-1.28374 -4.57884,3.60174 0.41366,2.20501 0.19633,5.04759 -0.48295,6.31683 -1.72851,3.2298 0.0141,5.49602 3.54594,4.61117 1.74939,-0.43829 3.87003,-1.2e-4 5.32474,1.10021 2.74178,2.07388 5.43939,2.45844 5.43939,0.77542 z"
     style="fill:#08fdd8;fill-opacity:1" />
  <path
     inkscape:connector-curvature="0"
     id="path4979"
     d="m 266.25464,585.12851 c -4.69598,-1.35425 -5.53469,-3.00285 -8.83726,-17.3711 -4.25672,-18.51944 -4.43168,-16.68547 1.99811,-20.94439 9.26934,-6.13975 17.26152,-6.54512 22.30526,-1.1313 2.72466,2.92457 7.86114,13.15107 8.98269,17.8841 0.59115,2.49472 -0.83322,4.61473 -8.7041,12.95506 -5.176,5.48471 -9.94148,9.92317 -10.58996,9.86319 -0.64849,-0.0599 -2.96812,-0.62495 -5.15474,-1.25556 z"
     style="fill:#08fdd8;fill-opacity:1" />
  <path
     inkscape:connector-curvature="0"
     id="path4981"
     d="m 277.45673,572.29024 c -1.72767,-4.1102 -1.99896,-7.28106 -0.69208,-8.08875 0.7274,-0.44957 1.32257,-1.6692 1.32257,-2.71029 0,-1.4802 -0.83352,-1.72619 -3.82315,-1.12825 -2.66816,0.53362 -4.47101,0.17833 -5.9676,-1.17608 -1.17945,-1.06739 -2.72267,-1.58334 -3.42938,-1.14658 -1.86695,1.15385 -1.57358,4.9509 0.51652,6.68553 1.13999,0.9461 1.53571,2.5539 1.07774,4.37863 -0.60878,2.42548 -0.27087,2.88653 2.12699,2.9021 1.56791,0.01 3.66665,0.54579 4.66387,1.19025 3.00804,1.94394 5.20369,1.47052 4.20452,-0.90656 z"
     style="fill:#08fdd8;fill-opacity:1" />
  <path
     inkscape:connector-curvature="0"
     id="path4983"
     d="m 425.55218,572.256 c -3.6548,-3.84149 -8.46882,-8.519 -10.69782,-10.39446 -3.96873,-3.33925 -4.03506,-3.55149 -3.19951,-10.23896 1.69802,-13.59036 9.89877,-23.14968 19.85965,-23.14968 7.47507,0 20.92235,7.2855 22.47465,12.17639 0.46525,1.46588 -0.44057,3.82298 -2.51359,6.54083 -5.11915,6.71156 -10.17384,5.32538 -11.32038,-3.10448 -0.89046,-6.54728 -3.244,-7.37994 -5.51265,-1.95031 -1.17017,2.8006 -2.98135,4.63207 -5.4222,5.48296 -4.35471,1.51806 -4.79088,4.6615 -0.85446,6.15812 1.54585,0.58773 3.74695,2.4976 4.89134,4.24415 l 2.0807,3.17556 3.04271,-2.39341 c 5.52051,-4.34243 6.94106,-2.26473 6.01812,8.80208 -0.45447,5.4495 -1.45609,10.15099 -2.27325,10.67035 -0.80347,0.51063 -3.36599,0.93675 -5.69452,0.94692 -3.5946,0.0158 -5.23677,-1.03582 -10.87879,-6.96603 z"
     style="fill:#08fdd8;fill-opacity:1" />
  <path
     inkscape:connector-curvature="0"
     id="path4985"
     d="m 307.7017,565.94427 c -1.32964,-0.57137 -4.17277,-1.07707 -6.3181,-1.1238 -4.55059,-0.0991 -5.90141,-1.84267 -10.54291,-13.60814 l -3.18909,-8.08379 3.6384,-6.44689 c 5.71077,-10.11892 10.54244,-14.11258 18.67539,-15.43625 11.17292,-1.81844 15.76506,0.87274 21.4477,12.56915 l 3.47612,7.15478 -7.0149,7.35027 c -3.85821,4.04263 -8.77768,9.93397 -10.93214,13.09184 -3.99931,5.86191 -5.00243,6.35399 -9.24047,4.53283 z"
     style="fill:#08fdd8;fill-opacity:1" />
  <path
     inkscape:connector-curvature="0"
     id="path4987"
     d="m 312.35375,549.32741 c -0.49291,-1.9639 0.10874,-4.05526 1.84066,-6.39775 4.40305,-5.95545 2.58199,-8.85652 -2.86825,-4.56935 -2.79922,2.20185 -3.67935,2.36993 -5.72398,1.09304 -3.25804,-2.03467 -5.25234,-0.0488 -3.40933,3.39482 0.98531,1.84107 1.00087,3.22443 0.0561,4.98977 -1.88198,3.51651 -0.79637,4.40712 5.37205,4.40712 5.17371,0 5.426,-0.15553 4.73275,-2.91765 z"
     style="fill:#08fdd8;fill-opacity:1" />
  <path
     inkscape:connector-curvature="0"
     id="path4989"
     d="m 370.19507,550.52506 c -6.11673,-5.82131 -11.12132,-11.20781 -11.12132,-11.97003 0,-0.76219 1.85956,-6.19574 4.13234,-12.07456 4.51982,-11.691 5.61863,-12.64145 16.41648,-14.19994 5.02011,-0.72457 6.01592,-0.38697 12.91866,4.37956 19.92071,13.75584 20.43497,14.45403 16.08125,21.83301 -1.33523,2.26305 -3.25369,6.89611 -4.26326,10.2957 -1.64957,5.55469 -2.29163,6.30772 -6.33579,7.4309 -2.4751,0.68739 -5.58807,1.27212 -6.91769,1.29938 -1.32964,0.0273 -3.77736,0.82695 -5.4394,1.77705 -1.66204,0.95011 -3.3207,1.74674 -3.68591,1.77029 -0.36521,0.0236 -5.66863,-4.72005 -11.78536,-10.54136 z"
     style="fill:#08fdd8;fill-opacity:1" />
  <path
     inkscape:connector-curvature="0"
     id="path4991"
     d="m 391.10574,542.97794 c 0.41088,-0.66481 2.0748,-1.20875 3.69759,-1.20875 3.84898,0 3.84679,-2.9833 -0.004,-5.50644 -2.0022,-1.3119 -3.07368,-3.27715 -3.32408,-6.0969 -0.43313,-4.87769 -2.20616,-5.58234 -4.20174,-1.66993 -0.7781,1.52553 -3.13729,3.49797 -5.24261,4.38318 -4.32424,1.81821 -4.27848,4.25903 0.0989,5.26996 1.61275,0.37246 3.46922,1.8833 4.12548,3.35741 1.25244,2.81332 3.58411,3.52065 4.85056,1.47147 z"
     style="fill:#08fdd8;fill-opacity:1" />
  <path
     inkscape:connector-curvature="0"
     id="path4993"
     d="m 239.67263,545.8025 c -6.32805,-2.99193 -6.37578,-3.05564 -5.58283,-7.45397 0.43988,-2.43993 1.0521,-4.87605 1.36048,-5.41359 0.94109,-1.64038 7.98339,0.51482 11.60427,3.55134 5.75498,4.82623 7.19409,3.19178 3.96065,-4.4983 -1.17882,-2.80361 -1.34628,-4.91423 -0.55503,-6.99538 1.53464,-4.03641 0.4874,-6.18975 -3.01023,-6.18975 -4.75661,0 -6.13171,-2.76087 -3.71949,-7.46788 1.13175,-2.20839 2.66176,-4.4149 3.40001,-4.90333 1.62789,-1.077 11.88013,-1.21194 14.53972,-0.19137 2.55265,0.97953 2.4248,2.23007 -1.09902,10.74946 -2.58961,6.26077 -2.89931,8.42107 -2.26494,15.79802 l 0.73488,8.54548 -4.85374,3.84425 c -2.66957,2.11433 -5.59137,3.79889 -6.49293,3.74348 -0.90156,-0.0553 -4.51138,-1.45872 -8.0218,-3.11846 z"
     style="fill:#08fdd8;fill-opacity:1" />
  <path
     inkscape:connector-curvature="0"
     id="path4995"
     d="m 338.73887,534.05496 c -1.84749,-2.9132 -4.09761,-7.53445 -5.00023,-10.26944 -1.47098,-4.4571 -1.42186,-5.21504 0.47371,-7.30962 1.16317,-1.2853 3.92383,-3.19531 6.13477,-4.24446 5.29451,-2.51242 14.75977,-0.67298 18.82971,3.65925 l 2.81264,2.99393 -5.07532,10.23353 -5.0753,10.23353 -4.87045,0 c -4.43606,0 -5.17004,-0.4724 -8.22953,-5.29672 z"
     style="fill:#08fdd8;fill-opacity:1" />
  <path
     inkscape:connector-curvature="0"
     id="path4997"
     d="m 352.58309,528.17071 c -0.40087,-1.49584 -0.73629,-3.87514 -0.74537,-5.28734 -0.0145,-2.27627 -0.66806,-2.55061 -5.75808,-2.41751 -3.15788,0.0825 -6.12764,0.69075 -6.59951,1.35152 -1.50703,2.11037 6.39848,9.07302 10.30168,9.07302 3.07098,0 3.43533,-0.35372 2.80128,-2.71969 z"
     style="fill:#08fdd8;fill-opacity:1" />
  <path
     inkscape:connector-curvature="0"
     id="path4999"
     d="m 263.64207,536.40197 c -1.84779,-2.22646 0.0194,-12.80534 3.60771,-20.43892 2.1274,-4.52589 3.55609,-5.87214 8.05493,-7.59027 5.35997,-2.04698 5.50825,-2.03802 7.44975,0.45043 1.0895,1.39645 4.29265,3.14623 7.11812,3.88841 5.45225,1.43217 6.14954,2.83801 3.28563,6.62445 -0.97608,1.2905 -1.77469,3.6193 -1.77469,5.17515 0,3.3047 -3.36574,5.07911 -4.98263,2.62687 -0.61181,-0.9279 -0.80423,-3.45489 -0.42761,-5.61553 0.60251,-3.45652 0.3629,-3.92846 -1.99453,-3.92846 -1.47361,0 -3.65375,-0.88187 -4.84476,-1.95972 -3.23375,-2.9265 -6.35711,-1.2446 -5.35074,2.88132 0.44392,1.81998 0.76936,4.80487 0.72322,6.63312 -0.0647,2.56188 0.47857,3.32408 2.3692,3.32408 1.34921,0 3.6696,0.67991 5.1564,1.51094 1.48682,0.83101 2.88896,1.60593 3.11587,1.72203 0.22689,0.11609 0.055,1.33763 -0.382,2.7145 -0.70742,2.22882 -1.70309,2.48954 -9.07897,2.37727 -4.55644,-0.0693 -8.81041,0.19896 -9.45328,0.59628 -0.64285,0.39732 -1.80909,-0.0491 -2.59162,-0.99195 z"
     style="fill:#08fdd8;fill-opacity:1" />
  <path
     inkscape:connector-curvature="0"
     id="path5001"
     d="m 439.80198,524.12819 c -9.59857,-6.34517 -8.07208,-14.47686 -9.41173,-24.10132 0,-4.09935 16.28288,-8.43791 20.02188,-5.33483 9.31151,14.92509 14.07855,23.27363 15.9847,36.9769 -0.45279,9.49009 -16.53274,-3.39975 -26.59485,-7.54075 z"
     style="fill:#08fdd8;fill-opacity:1"
     sodipodi:nodetypes="ccccc" />
  <path
     inkscape:connector-curvature="0"
     id="path5003"
     d="m 409.74206,521.4345 c -4.26665,-3.22509 -9.11738,-6.56653 -10.77943,-7.42541 -6.7838,-3.50568 -13.21068,-7.97792 -13.25216,-9.22174 -0.0243,-0.728 0.99405,-2.26315 2.26292,-3.41148 1.26889,-1.14831 2.96956,-3.68726 3.77927,-5.64209 1.74279,-4.20744 5.13722,-5.31759 12.76283,-4.17406 10.55683,1.58309 19.08515,9.07554 23.81418,20.92165 2.84002,7.11416 2.6474,8.15397 -2.02082,10.90829 -7.47975,4.41316 -8.26429,4.32056 -16.56679,-1.95516 z"
     style="fill:#08fdd8;fill-opacity:1" />
  <path
     inkscape:connector-curvature="0"
     id="path5005"
     d="m 420.71091,511.89504 c 0.005,-0.80762 -1.04416,-2.0322 -2.33173,-2.72129 -1.40973,-0.75446 -2.49168,-2.81114 -2.7197,-5.16984 -0.48174,-4.98317 -3.97321,-6.0313 -5.10252,-1.53176 -0.6919,2.75671 -1.32244,3.08852 -5.28343,2.78016 -5.80632,-0.45198 -6.14778,2.54989 -0.56931,5.00522 2.16066,0.95099 3.92845,2.61001 3.92845,3.68671 0,4.15146 2.53756,4.86062 7.41957,2.07352 2.55714,-1.45986 4.65354,-3.31508 4.65867,-4.12272 z"
     style="fill:#08fdd8;fill-opacity:1" />
  <path
     inkscape:connector-curvature="0"
     id="path5007"
     d="m 301.20474,511.63305 c -1.16086,-2.37235 -2.89269,-5.54394 -3.84852,-7.04798 -1.5191,-2.39039 -1.50598,-3.14775 0.10418,-6.01656 1.01317,-1.80506 3.73192,-4.56618 6.04168,-6.13583 3.66275,-2.48908 5.12661,-2.76143 11.45208,-2.1307 3.98889,0.39775 9.01508,0.70118 11.1693,0.67428 5.33549,-0.0666 10.77612,2.96606 12.98533,7.23822 2.60381,5.03521 2.29702,6.94899 -1.49048,9.29751 -1.82825,1.13365 -4.85554,3.45792 -6.7273,5.16507 -3.16203,2.88393 -4.25982,3.10978 -15.48945,3.18663 l -12.08622,0.0826 -2.11066,-4.31335 z"
     style="fill:#08fdd8;fill-opacity:1" />
  <path
     inkscape:connector-curvature="0"
     id="path5009"
     d="m 319.46927,508.98949 c 3.06462,0.16594 3.21002,-0.0322 1.98944,-2.71113 -1.04193,-2.28679 -0.89029,-3.54114 0.72636,-6.00845 2.59373,-3.95854 1.29949,-6.62626 -1.83745,-3.78737 -2.0441,1.84989 -2.44625,1.85623 -4.98398,0.0787 -1.51826,-1.06339 -3.18336,-1.93347 -3.70026,-1.93347 -1.38858,0 -1.14177,5.3583 0.31388,6.81394 0.8366,0.83661 0.86227,2.28311 0.0771,4.34811 -1.34436,3.53596 -0.49484,4.99115 2.23229,3.82379 1.03194,-0.44173 3.3641,-0.72259 5.18256,-0.62413 z"
     style="fill:#08fdd8;fill-opacity:1" />
  <path
     inkscape:connector-curvature="0"
     id="path5011"
     d="m 357.86499,509.13282 c -2.32684,-1.27389 -5.14368,-2.33897 -6.25961,-2.36683 -3.40761,-0.085 -5.82793,-3.59126 -5.82793,-8.44257 l 0,-4.59294 c 2.11238,-3.20758 16.8415,-4.00454 24.11506,-6.92856 5.19554,-2.68671 7.08003,-2.31845 11.68123,2.28275 l 4.1269,4.12692 -2.16273,5.8249 c -2.06517,5.56213 -2.5431,5.97364 -10.59375,9.12151 -10.03287,3.92293 -9.73002,3.90336 -15.07917,0.97482 z"
     style="fill:#08fdd8;fill-opacity:1"
     sodipodi:nodetypes="sssccscsss" />
  <path
     inkscape:connector-curvature="0"
     id="path5013"
     d="m 262.9778,502.42749 c -2.65926,-0.86102 -6.33085,-1.89068 -8.15909,-2.28812 -4.09176,-0.88952 -4.10623,-1.59047 -0.20321,-9.84077 5.16119,-10.90988 13.95419,-14.9427 24.53683,-11.25358 4.16452,1.45175 6.62225,5.23259 7.86334,12.09642 1.10736,6.12435 -0.0283,8.134 -5.11671,9.0544 -2.42887,0.43934 -5.88493,1.54201 -7.68016,2.45039 -3.77986,1.91258 -4.71468,1.89439 -11.241,-0.21874 z"
     style="fill:#08fdd8;fill-opacity:1" />
  <path
     inkscape:connector-curvature="0"
     id="path5015"
     d="m 276.87847,495.83653 c 0,-1.99444 0.13597,-4.03422 0.30219,-4.53283 0.16619,-0.49861 -1.05766,-1.06517 -2.7197,-1.25903 -1.66203,-0.19386 -4.25673,-0.97159 -5.76601,-1.72827 -3.71701,-1.86357 -5.15075,-0.0885 -4.08542,5.05766 0.88167,4.25904 3.16378,5.68536 9.54924,5.96824 2.24282,0.0994 2.7197,-0.51534 2.7197,-3.50577 z"
     style="fill:#08fdd8;fill-opacity:1" />
  <path
     inkscape:connector-curvature="0"
     id="path5017"
     d="m 423.85004,495.67514 c -4.08977,-2.32984 -16.05253,-6.26485 -15.41747,-8.27928 1.27261,-4.03671 5.48039,-7.09733 6.27041,-12.43362 6.52539,-3.73546 27.19815,8.2856 26.25506,14.36779 -0.88087,2.64261 -10.51271,10.10228 -17.108,6.34511 z"
     style="fill:#08fdd8;fill-opacity:1"
     sodipodi:nodetypes="ssccs" />
  <path
     inkscape:connector-curvature="0"
     id="path5021"
     d="m 298.29468,482.01177 c -4.84733,-1.72933 -12.93282,-6.796 -12.94668,-8.1129 -0.005,-0.43144 4.20727,0.83501 9.3596,2.81435 5.15231,1.97932 10.31362,3.89 11.46956,4.24594 2.53826,0.78158 1.59904,2.81115 -1.26651,2.73678 -1.12417,-0.0291 -4.10137,-0.78707 -6.61597,-1.68417 z"
     style="fill:#08fdd8;fill-opacity:1" />
  <path
     inkscape:connector-curvature="0"
     id="path5023"
     d="m 306.39813,476.62947 c -5.75951,-1.47289 -23.47589,-11.29191 -23.47589,-13.01114 0,-5.21406 24.11534,-4.38745 32.42473,1.11145 5.32828,3.52608 8.53888,8.75795 6.57785,10.71899 -1.71187,1.71185 -10.75934,2.39984 -15.52669,1.1807 z"
     style="fill:#08fdd8;fill-opacity:1" />
  <path
     inkscape:connector-curvature="0"
     id="path5025"
     d="m 374.01287,469.3374 c -4.58371,-2.79501 -4.82755,-3.15881 -5.88105,-8.77443 -0.77168,-4.11348 -0.5525,-4.57615 3.05056,-6.43938 4.60577,-2.38172 17.03955,-1.49146 19.96017,1.42918 1.56318,1.56317 1.38846,2.45653 -1.45348,7.43177 -1.77666,3.11027 -3.74713,6.33496 -4.37888,7.16596 -1.68375,2.21491 -6.95349,1.83562 -11.29732,-0.8131 z"
     style="fill:#08fdd8;fill-opacity:1" />
  <path
     inkscape:connector-curvature="0"
     id="path5027"
     d="m 334.17096,468.35004 c -7.70836,-0.37132 -8.94137,-0.78594 -12.08012,-4.0621 l -3.49553,-3.64854 2.61282,-4.46119 c 2.34967,-4.01185 3.10349,-4.45116 7.48397,-4.36155 6.25077,0.12786 14.06444,5.20111 16.77945,10.89454 1.76629,3.70397 1.80035,4.4037 0.26165,5.37692 -0.97288,0.61534 -2.04084,1.01905 -2.37325,0.89714 -0.33241,-0.12192 -4.46745,-0.40777 -9.18899,-0.63522 z"
     style="fill:#08fdd8;fill-opacity:1" />
  <path
     inkscape:connector-curvature="0"
     id="path5029"
     d="m 278.80759,453.11896 c -0.97318,-5.18758 -6.51553,-10.32973 -14.36445,-13.32727 -8.0603,-3.07825 -7.35231,-5.09807 2.1274,-6.0693 8.37254,-0.85779 13.11403,0.41516 20.11492,5.40022 6.00691,4.2773 11.43178,14.34646 8.62651,16.01178 -0.49862,0.296 -4.23712,0.91744 -8.30783,1.38097 l -7.40127,0.8428 -0.79528,-4.2392 z"
     style="fill:#08fdd8;fill-opacity:1" />
  <path
     inkscape:connector-curvature="0"
     id="path5031"
     d="m 304.94235,455.8953 c -1.76963,-0.71048 -4.01895,-3.91525 -6.27109,-8.93479 -4.4949,-10.01831 -11.96675,-18.09049 -20.93609,-22.61819 -8.74473,-4.41433 -7.99527,-6.0243 3.84425,-8.25826 9.09035,-1.71523 18.36138,-1.02773 25.31375,1.87716 5.48337,2.29109 19.02963,11.33738 24.19341,16.15652 4.53271,4.23021 3.91927,6.57825 -2.06183,7.89193 -5.43771,1.19431 -10.78157,5.10165 -14.04287,10.26791 -3.13182,4.96111 -5.00885,5.63749 -10.03953,3.61772 z"
     style="fill:#08fdd8;fill-opacity:1" />
  <path
     inkscape:connector-curvature="0"
     id="path5033"
     d="m 390.80355,451.4411 c -4.81992,-1.69626 -8.76347,-3.61932 -8.76347,-4.27348 0,-2.05439 13.13391,-0.2745 16.49577,2.23548 3.06336,2.28712 3.96301,4.45894 2.02839,4.89654 -0.54848,0.12407 -4.94078,-1.16227 -9.76069,-2.85854 z"
     style="fill:#08fdd8;fill-opacity:1" />
  <path
     inkscape:connector-curvature="0"
     id="path5035"
     d="m 358.93457,450.0651 c -1.58548,-1.24095 -6.23653,-3.94537 -10.33565,-6.00981 -6.04965,-3.04675 -7.95204,-4.75284 -10.10359,-9.06089 -2.15515,-4.31524 -2.39217,-5.79031 -1.26799,-7.89086 0.76046,-1.42093 2.53959,-2.5835 3.95362,-2.5835 4.40566,0 12.69456,5.68024 14.07738,9.64698 0.69967,2.00713 1.56511,3.64931 1.92318,3.64931 0.35807,0 1.43139,-1.86765 2.38516,-4.15034 1.89761,-4.54162 7.7501,-8.31132 11.96729,-7.70836 3.00663,0.42988 5.65847,5.21451 6.54232,11.80406 0.58516,4.36271 0.3844,4.6453 -6.76857,9.52788 -4.05438,2.76749 -7.84834,5.03181 -8.43103,5.03181 -0.58267,0 -2.35663,-1.01533 -3.94212,-2.25628 z"
     style="fill:#08fdd8;fill-opacity:1" />
  <path
     inkscape:connector-curvature="0"
     id="path5037"
     d="m 381.68215,436.57818 c -0.47893,-1.83146 0.52145,-3.90011 3.458,-7.1505 2.27255,-2.51544 6.47874,-8.81812 9.34712,-14.00597 2.86836,-5.18784 6.5023,-10.28703 8.07541,-11.33153 2.85787,-1.89757 2.85951,-1.89568 2.02613,2.31504 -2.74512,13.86972 -13.2636,31.69604 -19.10754,32.38272 -2.34398,0.27543 -3.29368,-0.27696 -3.79912,-2.20976 z"
     style="fill:#08fdd8;fill-opacity:1" />
  <path
     inkscape:connector-curvature="0"
     id="path5039"
     d="m 238.23001,433.0607 c -1.5104,-0.98419 -1.35733,-1.61226 1.00598,-4.12789 4.12667,-4.39264 12.17993,-6.06708 20.56342,-4.27557 7.93039,1.69468 10.15823,3.12808 6.07292,3.90738 -3.5095,0.66946 -20.07911,4.25274 -23.44335,5.06977 -1.32963,0.32293 -3.21917,0.0648 -4.19897,-0.57369 z"
     style="fill:#08fdd8;fill-opacity:1" />
  <path
     inkscape:connector-curvature="0"
     id="path5041"
     d="m 375.69412,421.90352 c -4.11583,-4.61986 -4.11002,-6.41335 0.0402,-12.37588 4.93622,-7.09183 11.60902,-12.05701 14.99351,-11.15656 6.30902,1.67855 6.41863,2.4326 1.5414,10.60337 -8.55041,14.32443 -10.26045,16.75443 -11.7572,16.70727 -0.82158,-0.0259 -2.98962,-1.72611 -4.81787,-3.7782 z"
     style="fill:#08fdd8;fill-opacity:1" />
  <path
     inkscape:connector-curvature="0"
     id="path5043"
     d="m 323.9455,419.01457 c -6.82999,-6.06599 -9.43918,-7.33565 -19.07571,-9.28245 -4.71557,-0.95266 -6.72274,-1.98745 -7.43866,-3.835 -0.53927,-1.39164 -1.94065,-5.23717 -3.1142,-8.54561 -1.65388,-4.66262 -4.84432,-8.73993 -14.1875,-18.13131 -12.3831,-12.44699 -16.47434,-18.82442 -16.52072,-25.7524 -0.0397,-5.93746 2.69193,-6.08332 10.59229,-0.56558 3.79946,2.65361 9.89977,6.31812 13.55625,8.14336 10.13685,5.06006 29.86656,19.35927 38.98233,28.25263 7.59346,7.4082 8.15909,8.32319 8.15909,13.19877 0,2.88131 0.60898,7.65723 1.35329,10.61319 1.44184,5.72603 0.63478,7.84332 -3.91852,10.28016 -1.71932,0.92016 -3.42962,0.0279 -8.38794,-4.37576 z"
     style="fill:#08fdd8;fill-opacity:1" />
  <path
     inkscape:connector-curvature="0"
     id="path5045"
     d="m 406.77205,422.0257 c -0.4011,-0.649 1.63119,-3.48093 4.51624,-6.29317 2.88503,-2.81224 6.7797,-7.13161 8.65479,-9.59859 3.71623,-4.8893 6.70476,-6.3724 10.44717,-5.1846 3.61575,1.1476 2.95907,2.4105 -2.54365,4.89189 -2.75712,1.24329 -7.63599,5.3125 -10.98203,9.15953 -6.27748,7.21737 -8.86185,9.01622 -10.09252,7.02494 z"
     style="fill:#08fdd8;fill-opacity:1" />
  <path
     inkscape:connector-curvature="0"
     id="path5047"
     d="m 342.74057,414.82573 c -1.30926,-2.11844 -0.83204,-22.77487 0.62841,-27.20006 1.8548,-5.62009 8.91609,-9.59233 20.39736,-11.47425 7.57969,-1.2424 10.03665,-1.17378 16.31817,0.45567 4.06723,1.05507 9.02678,2.06824 11.02123,2.25149 2.76577,0.25412 3.72174,1.00771 4.02862,3.17583 0.85232,6.0214 -0.83801,8.52055 -8.31639,12.29561 -8.45689,4.26902 -16.21828,10.91208 -18.92548,16.19851 -1.04694,2.0444 -2.50757,4.11672 -3.24581,4.60515 -2.0544,1.35918 -21.04072,1.09228 -21.90611,-0.30795 z"
     style="fill:#08fdd8;fill-opacity:1" />
  <path
     inkscape:connector-curvature="0"
     id="path5049"
     d="m 260.28218,402.62227 c -9.12,-8.23904 -11.00787,-11.55794 -5.83607,-10.2599 16.66569,4.18282 25.88332,11.30065 20.98185,16.20212 -2.99598,2.99598 -6.98364,1.43149 -15.14578,-5.94222 z"
     style="fill:#08fdd8;fill-opacity:1" />
  <path
     inkscape:connector-curvature="0"
     id="path5051"
     d="m 412.25893,406.90012 c 0,-1.04837 1.58997,-3.49609 3.53328,-5.43939 3.56979,-3.56978 7.34551,-4.68267 7.34551,-2.16507 0,1.60309 -8.11163,9.51058 -9.75609,9.51058 -0.61749,0 -1.1227,-0.85777 -1.1227,-1.90612 z"
     style="fill:#08fdd8;fill-opacity:1" />
  <path
     inkscape:connector-curvature="0"
     id="path5053"
     d="m 281.54269,404.27341 c -1.67232,-1.82825 -5.84716,-7.81939 -9.27744,-13.31369 -3.43025,-5.49427 -8.41904,-12.7503 -11.08621,-16.12451 -2.66717,-3.37423 -4.84939,-6.63005 -4.84939,-7.23516 0,-3.05651 4.06114,0.0306 14.85143,11.28952 11.64819,12.15408 18.95984,22.39706 18.98234,26.59259 0.0178,3.31481 -5.14513,2.59088 -8.62073,-1.20875 z"
     style="fill:#08fdd8;fill-opacity:1" />
  <path
     inkscape:connector-curvature="0"
     id="path5055"
     d="m 328.05403,383.66653 c -3.88082,-3.1898 -12.49542,-9.66245 -19.14358,-14.3837 -17.65383,-12.53704 -19.83618,-15.13172 -20.71074,-24.62395 -0.57182,-6.20638 -0.0846,-10.07124 2.41727,-19.17096 1.72342,-6.26861 3.58926,-11.85322 4.14631,-12.41027 1.02831,-1.0283 22.82594,8.9527 35.71802,16.35503 10.25865,5.8903 18.2467,12.56182 21.50775,17.96304 1.56972,2.59993 3.94193,6.17863 5.27156,7.9527 2.6241,3.50121 5.3921,10.54061 5.42119,13.78677 0.012,1.33753 -3.00914,3.48708 -8.8481,6.2955 -6.5266,3.13918 -9.75971,5.55371 -12.25193,9.15 -1.8621,2.687 -4.08,4.88548 -4.92868,4.88548 -0.84867,0 -4.71825,-2.60984 -8.59907,-5.79964 z"
     style="fill:#08fdd8;fill-opacity:1" />
  <path
     inkscape:connector-curvature="0"
     id="path5057"
     d="m 408.63267,380.58187 c 0,-2.20964 5.92304,-10.08224 11.63934,-15.4704 5.77015,-5.43892 25.74104,-19.16045 27.88692,-19.16045 3.51681,0 1.00053,3.58451 -10.22512,14.56601 -11.02868,10.78882 -25.11857,21.69662 -28.02607,21.69662 -0.70129,0 -1.27507,-0.7343 -1.27507,-1.63178 z"
     style="fill:#08fdd8;fill-opacity:1" />
  <path
     inkscape:connector-curvature="0"
     id="path5059"
     d="m 400.8406,375.80343 c -3.86174,-9.03862 -3.73491,-10.99667 1.05574,-16.29934 5.10896,-5.655 17.72646,-13.44122 30.08506,-18.56536 9.53418,-3.95309 18.67044,-6.10039 19.59444,-4.60529 0.32549,0.52662 -3.35624,3.57059 -8.18158,6.76441 -18.19157,12.04062 -25.7932,18.76289 -36.76902,32.51552 l -3.82055,4.78714 -1.96409,-4.59708 z"
     style="fill:#08fdd8;fill-opacity:1" />
  <path
     inkscape:connector-curvature="0"
     id="path5061"
     d="m 366.7302,367.4337 c -0.6304,-0.84603 -3.24723,-6.34709 -5.8152,-12.22455 -5.07712,-11.62026 -10.80813,-18.39288 -21.64528,-25.5792 -7.61588,-5.05027 -11.62358,-8.48981 -11.62358,-9.97575 0,-0.62141 1.08789,-2.11435 2.41751,-3.31765 1.32963,-1.2033 2.43042,-3.59934 2.4462,-5.32456 0.0442,-4.82405 4.97285,-15.73299 10.43316,-23.09203 10.61588,-14.30742 38.40804,-36.49374 43.34262,-34.60017 1.38182,0.53026 1.79822,2.90139 1.79822,10.23968 0,5.2523 0.85487,14.38037 1.89972,20.28456 2.82131,15.94277 0.88868,33.29138 -6.81143,61.14411 -2.07625,7.51014 -4.06598,14.91183 -4.42166,16.44819 -1.05119,4.54082 -9.83872,8.92523 -12.02028,5.99737 z"
     style="fill:#08fdd8;fill-opacity:1" />
  <path
     inkscape:connector-curvature="0"
     id="path5063"
     d="m 383.25827,362.57139 c 0.005,-0.83102 1.04407,-5.86245 2.30864,-11.18097 2.14224,-9.00981 2.69865,-10.00014 8.14966,-14.50506 7.57585,-6.26095 31.15512,-30.28045 34.45947,-35.10282 1.4052,-2.05077 3.97409,-4.6432 5.70864,-5.76094 11.32393,-7.29721 15.30483,-9.44386 19.25025,-10.38049 2.44875,-0.58131 5.40418,-1.45001 6.5676,-1.93044 3.49499,-1.44323 2.42646,1.50121 -1.628,4.48615 -6.03799,4.44523 -32.22928,33.24187 -36.95863,40.63505 -2.38883,3.73435 -5.32639,9.08306 -6.52788,11.88602 -1.35781,3.16764 -3.57158,5.81356 -5.84965,6.9916 -2.01582,1.04242 -7.55437,5.15276 -12.30788,9.13407 -8.21294,6.87876 -13.19293,9.04428 -13.17222,5.72783 z"
     style="fill:#08fdd8;fill-opacity:1" />
  <path
     inkscape:connector-curvature="0"
     id="path5065"
     d="m 250.75107,355.38188 c -3.02136,-2.30186 -17.03927,-14.5698 -36.54162,-31.97982 -5.70341,-5.0915 -6.35514,-7.8998 -1.19629,-5.15475 10.07644,5.3617 44.52524,34.39703 44.52524,37.5283 0,3.0057 -2.51695,2.8597 -6.78733,-0.39373 z"
     style="fill:#08fdd8;fill-opacity:1" />
  <path
     inkscape:connector-curvature="0"
     id="path5067"
     d="m 274.13036,342.02256 c -2.63684,-2.82546 -8.51749,-9.56939 -13.06811,-14.9865 -4.55062,-5.41711 -13.46598,-14.66409 -19.8119,-20.54882 -15.33691,-14.22228 -34.44314,-36.08142 -34.47165,-39.43847 -0.005,-0.51567 1.59683,-0.10766 3.55826,0.90656 1.96144,1.01429 4.46233,1.84418 5.55754,1.84418 1.0952,0 6.33562,3.12765 11.64536,6.95034 5.30973,3.82268 11.05308,7.70076 12.76299,8.61792 3.04127,1.6313 24.71635,21.99105 37.47348,35.19942 5.52173,5.71706 6.33486,7.156 5.80593,10.27441 -0.33829,1.99443 -0.97324,6.48193 -1.41103,9.97221 -0.43777,3.49028 -1.34734,6.34597 -2.02129,6.34597 -0.67392,0 -3.38273,-2.31175 -6.01958,-5.13722 z"
     style="fill:#08fdd8;fill-opacity:1" />
  <path
     inkscape:connector-curvature="0"
     id="path5069"
     d="m 392.94771,326.91314 c 0.0159,-1.16343 0.55929,-4.29107 1.20762,-6.95034 0.64836,-2.65925 1.19841,-10.61077 1.22235,-17.67 l 0.0435,-12.83501 6.79932,-7.51349 c 3.73963,-4.13239 10.38378,-9.88944 14.76481,-12.79341 4.38104,-2.90395 8.98894,-6.80169 10.23978,-8.66162 2.3201,-3.44982 9.74126,-9.67778 20.64375,-17.32456 10.06093,-7.05654 15.10429,-9.62782 18.88416,-9.62782 l 3.5882,0 -1.90787,3.68942 c -1.04934,2.02919 -3.93664,5.70079 -6.41624,8.15909 -10.95082,10.85679 -35.97574,43.48386 -43.47229,56.67843 -4.15121,7.30647 -21.82327,26.96464 -24.24035,26.96464 -0.76207,0 -1.37261,-0.9519 -1.35674,-2.11533 z"
     style="fill:#08fdd8;fill-opacity:1" />
  <path
     inkscape:connector-curvature="0"
     id="path5071"
     d="m 311.73575,315.79626 c -3.09979,-1.1923 -8.1585,-3.87022 -11.24157,-5.95096 -3.08308,-2.08074 -6.11121,-3.78317 -6.72918,-3.78317 -0.61798,0 -2.23358,2.17576 -3.59023,4.83502 -1.35666,2.65926 -2.98703,4.83502 -3.62304,4.83502 -1.16412,0 -18.23099,-22.10067 -19.62807,-25.41729 -0.41231,-0.97881 -2.73393,-6.40317 -5.15914,-12.05409 -4.51054,-10.50991 -6.17604,-18.61013 -7.33175,-35.65825 -0.36056,-5.31851 -1.1428,-12.82183 -1.73831,-16.67402 -1.05628,-6.83256 -0.64765,-10.52294 1.16519,-10.52294 2.01064,0 33.60859,33.67928 36.85678,39.28451 1.92628,3.32406 5.37015,8.76347 7.65304,12.08753 5.16968,7.52749 16.09835,30.07909 19.56856,40.38023 2.14577,6.3696 2.32561,8.00482 1.01953,9.27002 -1.28471,1.24446 -2.65599,1.12454 -7.22181,-0.63161 z"
     style="fill:#08fdd8;fill-opacity:1" />
  <path
     inkscape:connector-curvature="0"
     id="path5073"
     d="m 321.48635,301.41384 c -2.10068,-6.02597 -12.48926,-27.10425 -17.36859,-35.24059 -3.43636,-5.73018 -4.69886,-9.16565 -4.66416,-12.69192 0.44735,-45.44896 1.88258,-62.50265 6.91755,-82.19528 1.01987,-3.98889 2.41529,-11.87601 3.10093,-17.52693 1.961,-16.16227 5.43117,-30.82323 7.29568,-30.82323 3.30177,0 17.49207,26.2699 23.27538,43.08873 6.77308,19.69725 7.58609,22.76194 9.89324,37.29341 1.00274,6.31574 2.61686,15.29075 3.5869,19.94445 0.97006,4.65371 2.9885,15.13713 4.48543,23.2965 l 2.72167,14.8352 -8.82517,8.05459 c -8.00089,7.30225 -17.92214,20.58329 -23.51344,31.47616 -2.48666,4.84448 -5.31722,5.04488 -6.90542,0.48891 z"
     style="fill:#08fdd8;fill-opacity:1" />
  <path
     inkscape:connector-curvature="0"
     id="path5075"
     d="m 253.69417,278.57039 c -1.93441,-2.26261 -20.28506,-39.54538 -23.95042,-48.65977 -1.2031,-2.99167 -4.10692,-8.70303 -6.45291,-12.69192 -15.68027,-26.66104 -15.61731,-30.62382 0.26581,-16.72927 13.61943,11.91429 21.97595,21.02509 23.70027,25.83955 0.84217,2.3514 2.17297,11.05443 2.95735,19.34007 0.78438,8.28563 2.48437,19.36782 3.7778,24.62706 1.29344,5.25923 2.16387,9.75007 1.9343,9.97963 -0.22956,0.22956 -1.23405,-0.53785 -2.2322,-1.70535 z"
     style="fill:#08fdd8;fill-opacity:1" />
  <path
     inkscape:connector-curvature="0"
     id="path5077"
     d="m 394.6914,273.3601 c -0.43319,-0.70092 -0.78763,-7.77116 -0.78763,-15.71163 0,-7.94047 -0.50349,-14.74839 -1.11887,-15.12873 -0.61537,-0.38032 -3.05256,0.50358 -5.41596,1.96425 -5.98589,3.69947 -7.95503,1.67318 -4.45938,-4.58888 1.39544,-2.49979 3.85714,-6.99282 5.47043,-9.98449 5.51667,-10.23007 8.6752,-15.1217 19.59675,-30.3494 10.63939,-14.83432 18.05318,-24.04453 19.35469,-24.04453 1.51931,0 0.31227,4.42082 -4.69688,17.20223 -6.74653,17.21453 -8.42583,23.69466 -12.14404,46.86173 -3.61661,22.5342 -4.47207,25.64194 -8.51873,30.94739 -3.15819,4.14059 -5.82944,5.17971 -7.28038,2.83206 z"
     style="fill:#08fdd8;fill-opacity:1" />
  <path
     inkscape:connector-curvature="0"
     id="path5079"
     d="m 364.78332,254.45171 c -0.30566,-0.53372 -1.80719,-5.76562 -3.33674,-11.6265 l -2.781,-10.65611 3.18142,-2.94998 c 1.7498,-1.62249 3.76789,-5.25831 4.48468,-8.07958 4.08071,-16.06185 16.73032,-51.46273 23.42882,-65.5673 2.84159,-5.98332 9.14965,-17.40606 14.01792,-25.38382 4.86827,-7.97778 10.38105,-17.22475 12.25062,-20.54883 5.56118,-9.887707 15.81143,-14.970753 13.74982,-6.81847 -3.16009,12.49597 -5.62781,27.0187 -7.2763,42.82131 -2.43081,23.30222 -3.51086,28.02322 -7.63803,33.38621 -4.03989,5.24952 -8.53546,12.49776 -17.68906,28.52003 -3.79813,6.64816 -9.38931,14.99702 -12.42488,18.55303 -7.87855,9.22939 -11.20564,14.37634 -14.12576,21.85233 -2.42943,6.21978 -4.61094,8.64634 -5.84151,6.49768 z"
     style="fill:#08fdd8;fill-opacity:1" />
  <path
     inkscape:connector-curvature="0"
     id="path5081"
     d="m 281.2946,233.47775 c -5.75295,-6.72347 -10.45991,-12.92685 -10.45991,-13.78529 0,-2.49087 -5.88628,-20.28762 -7.8877,-23.84785 -1.70469,-3.03239 -5.37144,-12.577 -11.98872,-31.20671 -1.53491,-4.3213 -6.3437,-15.761 -10.68618,-25.42159 -7.7579,-17.25874 -12.49944,-29.82836 -11.5936,-30.73419 0.25253,-0.25252 1.88358,-0.81666 3.62456,-1.25363 2.70366,-0.67857 3.78568,-0.0316 7.41734,4.43457 2.33856,2.87599 7.3358,11.48436 11.10497,19.12973 3.76916,7.64536 8.18138,16.42856 9.80492,19.5182 1.62355,3.08965 2.9519,6.43461 2.9519,7.43325 0,0.99864 1.84773,4.56144 4.10607,7.91732 5.79153,8.60615 12.12144,22.37038 17.61638,38.30631 2.59395,7.52277 5.55414,15.29799 6.57818,17.27826 2.2599,4.37017 3.2037,23.28278 1.19716,23.98936 -0.72901,0.2567 -6.03241,-5.03429 -11.78536,-11.75774 z"
     style="fill:#08fdd8;fill-opacity:1" />
  <path
     inkscape:connector-curvature="0"
     id="path5083"
     d="m 415.1084,238.06972 c 0.41829,-2.82547 1.30318,-8.94478 1.96639,-13.59849 0.66323,-4.6537 3.52256,-14.43011 6.35409,-21.72533 4.989,-12.85382 5.48472,-13.59812 16.02702,-24.06475 10.70835,-10.63145 19.23868,-17.66952 21.41602,-17.66952 1.62671,0 -0.13513,4.89366 -3.2709,9.08515 -1.50011,2.00517 -5.25443,8.53245 -8.34293,14.50506 -8.08891,15.64254 -14.34246,26.63102 -16.60955,29.18564 -1.0848,1.22235 -2.36123,3.49645 -2.8365,5.05353 -0.47529,1.5571 -2.51569,6.18059 -4.53424,10.27443 -7.13415,14.46888 -11.56319,18.36869 -10.1694,8.95428 z"
     style="fill:#08fdd8;fill-opacity:1" />
  <path
     sodipodi:nodetypes="ssssssssccssccs"
     inkscape:connector-curvature="0"
     id="path5085"
     d="m 358.17209,222.40713 c -0.70549,-0.85919 -2.42726,-8.36141 -3.82616,-16.67158 -1.39891,-8.31019 -3.56006,-18.91701 -4.80253,-23.57072 -6.22296,-23.30804 -29.86912,-73.12961 -34.70858,-73.12961 -2.11651,0 -2.14775,0.80168 0.66487,-17.056551 2.76637,-17.564588 5.78669,-32.070428 7.24525,-34.797239 0.56947,-1.06467 1.31169,-3.689974 1.64935,-5.834015 1.35337,-8.593487 4.96225,-22.089973 5.90676,-22.089973 1.33866,0 6.53197,11.601858 7.57501,16.922563 7.31135,25.491073 6.57901,25.475615 12.34967,46.537027 5.43034,19.664948 8.87365,33.731898 10.05991,41.097638 1.49112,9.25888 3.84642,20.99742 7.27592,36.26263 1.49359,6.64814 2.74342,13.99133 2.7774,16.31817 0.0603,4.11901 -8.31505,34.70344 -10.02692,36.61604 -0.47148,0.52679 -1.43445,0.25482 -2.13995,-0.60438 z"
     style="fill:#08fdd8;fill-opacity:1" />
  <path
     inkscape:connector-curvature="0"
     id="path5087"
     d="m 288.15036,197.0233 c -0.65818,-0.8592 -1.9195,-3.46595 -2.80292,-5.79281 -0.88344,-2.32685 -4.29804,-9.901 -7.58803,-16.83147 -3.52608,-7.42783 -6.36821,-15.3675 -6.92309,-19.34006 -0.51771,-3.70658 -1.00468,-18.43393 -1.08212,-32.72745 -0.0775,-14.29351 -0.65497,-35.76075 -1.28339,-47.704947 -0.62841,-11.94421 -0.99786,-21.861477 -0.82096,-22.038362 0.93712,-0.937131 10.43737,14.460163 10.43737,16.9161 0,1.591489 1.06209,3.854781 2.36018,5.029536 3.56887,3.2298 13.8131,18.449522 18.11118,26.907603 5.88573,11.58237 5.83213,12.73508 -3.19171,68.63586 -2.36101,14.62592 -4.68132,27.02359 -5.15627,27.55038 -0.47495,0.52679 -1.40205,0.25482 -2.06024,-0.60438 z"
     style="fill:#08fdd8;fill-opacity:1" />
  <path
     inkscape:connector-curvature="0"
     id="path5089"
     d="m 371.20209,166.08863 -1.38634,-8.21933 8.35542,-23.51048 c 4.59549,-12.93077 8.7401,-25.68623 9.21025,-28.34549 2.79223,-15.793677 22.89359,-59.833325 27.31018,-59.833325 2.35138,0 1.71525,4.736624 -4.30193,32.031981 -1.91723,8.697003 -4.94859,23.995854 -6.48971,32.752634 -0.47925,2.72323 -2.0205,6.80276 -3.42497,9.06566 -6.42685,10.35496 -16.38509,31.77713 -22.56232,48.53607 -3.00349,8.14852 -5.04538,7.39459 -6.71058,-2.47773 z"
     style="fill:#08fdd8;fill-opacity:1" />
  <path
     inkscape:transform-center-y="0.66820012"
     inkscape:transform-center-x="-10.35712"
     id="path5091"
     d="m 366.48366,466.77662 c 1.37637,1.5398 3.34166,3.55874 4.36733,4.48653 1.63009,1.47452 1.80236,2.05061 1.36864,4.5767 -0.2729,1.58941 -1.50412,4.2782 -2.73601,5.9751 -1.95351,2.69085 -2.90733,3.21952 -7.46175,4.13573 -2.87207,0.57778 -6.44363,1.45547 -7.93681,1.95044 -3.69822,1.22593 -8.21206,0.12923 -10.7733,-2.6175 -3.01874,-3.23734 -3.26358,-4.7534 -1.18955,-7.36538 1.00113,-1.26081 2.55176,-3.68694 3.44583,-5.39141 1.51037,-2.8794 2.22047,-3.29221 10.01934,-5.82446 l 8.39376,-2.72539 2.50252,2.79963 z"
     style="fill:#08fdd8;fill-opacity:1"
     inkscape:connector-curvature="0" />
  <path
     id="path5093"
     d="m 383.65747,479.75 c 0.44769,0.72056 0.98999,2.32408 1.2051,3.5634 0.45627,2.62878 1.58523,3.25889 8.81117,4.91783 l 4.96479,1.13985 3.41764,-2.67383 c 5.36426,-4.19681 7.25546,-7.3472 7.3098,-12.17697 0.0747,-6.63508 -1.88758,-9.06075 -9.16474,-11.32918 l -4.4515,-1.38762 -3.6453,4.70999 c -2.0049,2.59049 -4.98827,5.95811 -6.62969,7.4836 -3.04699,2.83173 -3.24425,3.45626 -1.81728,5.75294 z"
     style="fill:#08fdd8;fill-opacity:1"
     inkscape:connector-curvature="0" />
  <path
     id="path5095"
     d="m 446.25294,719.06558 c 0.23383,-0.32817 2.50911,-2.74159 5.05614,-5.36314 2.54705,-2.62158 4.4963,-5.02539 4.33168,-5.3418 -0.16464,-0.31641 1.31127,-2.78164 3.2798,-5.47828 1.96854,-2.69663 3.88732,-5.7321 4.26396,-6.7455 1.74844,-4.70439 8.05405,-1.95748 10.37036,4.51766 1.5847,4.43 1.05584,8.07705 -2.0167,13.90708 -2.09839,3.98163 -11.69807,14.62565 -13.0973,14.52217 -0.74581,-0.0551 -11.99686,-8.23708 -12.40463,-9.02081 -0.11465,-0.2204 -0.0171,-0.6692 0.21669,-0.99738 z"
     style="fill:#08fdd8;fill-opacity:1"
     inkscape:connector-curvature="0" />
  <g
     id="g5205"
     transform="matrix(0.9670033,0,0,0.9670033,-423.06109,132.25639)">
    <path
       id="path4540"
       d="m 789.97572,366.96379 c -3.56867,-1.6164 -8.01505,-7.60757 -6.6552,-8.96742 1.09107,-1.09108 11.43699,3.08283 14.29371,5.76658 l 2.7097,2.54563 5.88501,-5.71959 c 6.76838,-6.5781 11.15298,-8.23067 14.07769,-5.30596 2.65078,2.65077 0.7701,4.84439 -7.62763,8.89689 -8.08984,3.90391 -17.62642,5.07432 -22.68328,2.78387 z"
       style="fill:#df39fd;fill-opacity:1"
       inkscape:connector-curvature="0" />
    <path
       id="path4538"
       d="m 743.56328,361.83234 c -4.93256,-2.14657 -7.13307,-5.13278 -2.8066,-3.80869 5.18769,1.58765 11.09404,4.20723 11.09404,4.92039 0,1.21389 -4.25518,0.64308 -8.28744,-1.1117 z"
       style="fill:#df39fd;fill-opacity:1"
       inkscape:connector-curvature="0" />
    <path
       id="path4536"
       d="m 741.92628,351.59407 c -11.46601,-5.86055 -13.61762,-8.30542 -8.51306,-9.67338 4.64413,-1.24459 17.19956,-0.8846 22.28465,0.63893 5.94756,1.78193 13.65285,8.00722 13.65285,11.03048 0,2.8842 -2.40183,3.79273 -10.02668,3.79273 -4.7584,0 -8.52262,-1.25248 -17.39776,-5.78876 z"
       style="fill:#df39fd;fill-opacity:1"
       inkscape:connector-curvature="0" />
    <path
       id="path4534"
       d="m 711.15213,350.46808 c 1.33453,-1.00939 3.02203,-1.81736 3.75,-1.7955 0.72798,0.0219 0.2317,0.86562 -1.10282,1.875 -1.33453,1.00939 -3.02203,1.81736 -3.75,1.7955 -0.72798,-0.0219 -0.2317,-0.86563 1.10282,-1.875 z"
       style="fill:#df39fd;fill-opacity:1"
       inkscape:connector-curvature="0" />
    <path
       id="path4532"
       d="m 824.69601,349.91647 c -2.25192,-1.37305 -4.90043,-4.5409 -6.00333,-7.18052 -1.91057,-4.57263 -1.88222,-4.7975 0.88733,-7.04013 2.2796,-1.84593 4.42533,-2.21703 10.56005,-1.8264 4.23451,0.26963 8.56532,1.20912 9.62402,2.08777 1.71369,1.42223 1.58655,2.23963 -1.15856,7.44908 -3.084,5.85256 -6.06719,8.98067 -8.55621,8.97188 -0.72798,-0.002 -3.13696,-1.11032 -5.3533,-2.46168 z"
       style="fill:#df39fd;fill-opacity:1"
       inkscape:connector-curvature="0" />
    <path
       id="path4530"
       d="m 771.1638,344.81443 c -3.80072,-3.96243 -3.82975,-5.83295 -0.16174,-10.41691 2.79479,-3.49268 3.04911,-3.5583 7.80628,-2.01399 6.60213,2.14322 11.43892,5.68992 13.68624,10.03577 3.1082,6.01059 2.65428,6.33972 -8.20579,5.94979 -8.90802,-0.31984 -10.41321,-0.72749 -13.125,-3.55466 z"
       style="fill:#df39fd;fill-opacity:1"
       inkscape:connector-curvature="0" />
    <path
       id="path4528"
       d="m 802.72525,347.84068 c -1.27368,-1.27366 2.87854,-5.45785 5.41614,-5.45785 2.42999,0 5.6152,3.2119 4.08253,4.11673 -2.12483,1.25438 -8.66237,2.17743 -9.49868,1.34112 z"
       style="fill:#df39fd;fill-opacity:1"
       inkscape:connector-curvature="0" />
    <path
       id="path4526"
       d="m 844.35072,347.10973 c 0,-2.56577 3.67366,-7.2269 5.69587,-7.2269 2.48277,0 2.2658,2.96605 -0.38337,5.24114 -3.66839,3.15037 -5.3125,3.76493 -5.3125,1.98576 z"
       style="fill:#df39fd;fill-opacity:1"
       inkscape:connector-curvature="0" />
    <path
       id="path4524"
       d="m 860.06326,343.77447 c -1.57132,-2.54245 7.30011,-5.89243 10.44961,-3.94593 1.32902,0.82138 0.59229,1.58225 -2.97554,3.07299 -5.45587,2.2796 -6.52736,2.40475 -7.47407,0.87294 z"
       style="fill:#df39fd;fill-opacity:1"
       inkscape:connector-curvature="0" />
    <path
       id="path4522"
       d="m 753.51281,335.93939 c -3.22394,-0.87571 -4.37408,-2.18175 -6.16795,-7.004 -4.08994,-10.99451 -11.03205,-19.34919 -21.43164,-25.79246 -2.92188,-1.8103 -5.3125,-3.75786 -5.3125,-4.32792 0,-1.77194 10.16355,-4.18428 17.43724,-4.13878 12.13118,0.0759 21.79983,4.3778 36.93776,16.43484 8.03636,6.4008 7.97656,6.9974 -1.11471,11.11957 -6.13238,2.78055 -8.84005,4.87028 -11.24334,8.67733 -3.90921,6.1926 -4.21264,6.36027 -9.10486,5.03142 z"
       style="fill:#df39fd;fill-opacity:1"
       inkscape:connector-curvature="0" />
    <path
       id="path4520"
       d="m 792.68027,332.30239 c -3.42016,-2.7832 -5.18463,-4.91956 -4.06315,-4.91956 3.02051,0 14.44515,6.66376 14.46559,8.4375 0.0335,2.90212 -4.32394,1.42854 -10.40244,-3.51794 z"
       style="fill:#df39fd;fill-opacity:1"
       inkscape:connector-curvature="0" />
    <path
       id="path4518"
       d="m 726.43406,335.29949 c -0.45834,-0.45832 -0.83334,-1.82142 -0.83334,-3.02909 0,-3.69155 -5.8432,-9.40228 -13.16983,-12.87128 -3.82788,-1.81242 -6.61617,-3.85128 -6.19621,-4.53079 0.41998,-0.67953 4.12779,-1.2355 8.23961,-1.2355 11.54862,0 21.35422,5.7195 26.28258,15.33032 l 2.41285,4.70533 -3.24088,1.23217 c -3.68191,1.39985 -12.24081,1.65282 -13.49478,0.39884 z"
       style="fill:#df39fd;fill-opacity:1"
       inkscape:connector-curvature="0" />
    <path
       id="path4516"
       d="m 841.85072,330.91872 c -8.87965,-3.22511 -9.06888,-3.53589 -2.15304,-3.53589 4.34764,0 6.62528,0.75804 9.27084,3.0855 4.27102,3.75749 2.32636,3.88054 -7.1178,0.45039 z"
       style="fill:#df39fd;fill-opacity:1"
       inkscape:connector-curvature="0" />
    <path
       id="path4514"
       d="m 806.80139,328.40818 c -3.06662,-2.08829 -7.88708,-4.80685 -10.71213,-6.04124 -8.26378,-3.61081 -13.14422,-13.72398 -8.48785,-17.58842 3.13901,-2.60514 12.97468,3.0935 15.82165,9.16681 1.20854,2.57813 2.50286,4.6875 2.87629,4.6875 0.37341,0 1.49692,-1.9577 2.49667,-4.35045 2.22961,-5.33622 6.73216,-8.46429 11.4114,-7.92788 2.98853,0.34261 3.8273,1.33509 5.57043,6.59137 1.12867,3.40341 1.77667,6.90589 1.43998,7.78326 -0.50787,1.32349 -8.59117,7.70596 -13.54143,10.69214 -0.71463,0.43109 -3.80838,-0.9248 -6.875,-3.01309 z"
       style="fill:#df39fd;fill-opacity:1"
       inkscape:connector-curvature="0" />
    <path
       id="path4512"
       d="m 846.31742,321.97946 c -2.1023,-1.53724 -1.92154,-1.91635 2.57359,-5.39752 6.91926,-5.3585 17.67935,-11.69911 19.85348,-11.69911 3.1378,0 2.07769,2.00652 -2.87256,5.43705 -2.60083,1.80237 -6.93375,5.53514 -9.62868,8.295 -5.33038,5.4588 -6.51339,5.85981 -9.92583,3.36458 z"
       style="fill:#df39fd;fill-opacity:1"
       inkscape:connector-curvature="0" />
    <path
       id="path4510"
       d="m 833.29222,317.07433 c -2.38703,-2.38703 -1.67308,-4.45809 3.246,-9.41621 2.57812,-2.5986 6.03265,-7.52048 7.67671,-10.9375 2.97742,-6.18827 7.25928,-11.83779 8.97204,-11.83779 1.43909,0 -0.71195,7.78666 -4.34054,15.71254 -5.7411,12.5402 -12.41853,19.61463 -15.55421,16.47896 z"
       style="fill:#df39fd;fill-opacity:1"
       inkscape:connector-curvature="0" />
    <path
       id="path4508"
       d="m 686.85072,310.16962 c 0,-2.17934 2.98479,-3.70115 8.95166,-4.56408 8.09108,-1.17013 8.57636,0.9809 0.67344,2.98501 -3.57505,0.90662 -7.20323,1.90969 -8.0626,2.22907 -0.85938,0.31937 -1.5625,0.0269 -1.5625,-0.65 z"
       style="fill:#df39fd;fill-opacity:1"
       inkscape:connector-curvature="0" />
    <path
       id="path4506"
       d="m 825.78712,299.79653 c -3.62765,-4.61526 -3.04388,-7.58573 2.8422,-14.46228 5.61339,-6.558 11.31542,-9.14311 14.07664,-6.3819 1.75453,1.75454 1.3424,3.00263 -4.29224,12.99819 -3.42823,6.08151 -7.01049,11.17594 -7.96058,11.32096 -0.95008,0.14502 -3.0498,-1.41872 -4.66602,-3.47497 z"
       style="fill:#df39fd;fill-opacity:1"
       inkscape:connector-curvature="0" />
    <path
       id="path4504"
       d="m 771.5044,296.78707 c -5.71154,-5.25739 -15.35989,-9.40424 -21.88051,-9.40424 -3.2751,0 -4.90335,-2.16008 -6.29411,-8.34994 -1.07067,-4.7652 -14.52734,-25.40006 -16.56421,-25.40006 -0.49356,0 -1.23125,-0.87006 -1.63931,-1.93346 -0.46455,-1.2106 0.90512,-3.58054 3.66352,-6.33894 5.62718,-5.62717 8.42716,-5.12741 20.80416,3.71329 5.02248,3.58747 11.10053,7.73736 13.50678,9.22196 2.40625,1.48461 7.89945,6.26997 12.20712,10.63415 6.8532,6.9431 7.79779,8.475 7.55748,12.25642 -0.15105,2.37687 0.16332,7.04343 0.69862,10.37012 0.79078,4.91443 0.56789,6.49647 -1.18871,8.4375 -3.02397,3.34145 -4.10256,3.02327 -10.87083,-3.2068 z"
       style="fill:#df39fd;fill-opacity:1"
       inkscape:connector-curvature="0" />
    <path
       id="path4502"
       d="m 859.35072,298.82657 c 0,-1.11245 3.16657,-4.11948 6.13064,-5.82174 1.28217,-0.73636 1.48372,-0.53481 0.74736,0.74736 -2.74322,4.77664 -6.878,7.82714 -6.878,5.07438 z"
       style="fill:#df39fd;fill-opacity:1"
       inkscape:connector-curvature="0" />
    <path
       id="path4500"
       d="m 791.01463,291.65851 c -1.33077,-3.46797 0.85489,-24.72934 2.85704,-27.79213 2.67026,-4.08484 11.69953,-7.59717 21.98854,-8.55344 7.37075,-0.68503 10.29121,-0.33022 18.0148,2.18865 13.00657,4.24181 12.61147,7.49513 -2.02429,16.66845 -7.82079,4.90186 -12.32006,9.29279 -15.13989,14.77529 l -2.41092,4.6875 -11.26383,0 c -9.11102,0 -11.40862,-0.37734 -12.02145,-1.97432 z"
       style="fill:#df39fd;fill-opacity:1"
       inkscape:connector-curvature="0" />
    <path
       id="path4498"
       d="m 713.72572,287.12838 c -3.27794,-1.84614 -15.89043,-14.8968 -15.13078,-15.65644 1.89868,-1.89869 21.32142,7.29649 23.3267,11.0434 2.19968,4.11014 -3.44637,7.28799 -8.19592,4.61304 z"
       style="fill:#df39fd;fill-opacity:1"
       inkscape:connector-curvature="0" />
    <path
       id="path4496"
       d="m 728.50886,282.07033 c -2.10776,-2.23438 -5.44619,-6.875 -7.41873,-10.3125 -1.97253,-3.4375 -5.43582,-9.00065 -7.6962,-12.36256 -2.26036,-3.3619 -3.8177,-6.40461 -3.46072,-6.76159 0.84424,-0.84424 15.32531,12.82092 19.59377,18.4898 8.87364,11.78495 8.05687,20.567 -1.01812,10.94685 z"
       style="fill:#df39fd;fill-opacity:1"
       inkscape:connector-curvature="0" />
    <path
       id="path4494"
       d="m 872.66201,284.22311 c 0.84772,-2.20913 4.39852,-4.34028 7.23154,-4.34028 3.1611,0 2.2509,2.2839 -1.73075,4.3429 -4.68218,2.42125 -6.43059,2.42041 -5.50079,-0.002 z"
       style="fill:#df39fd;fill-opacity:1"
       inkscape:connector-curvature="0" />
    <path
       id="path4492"
       d="m 865.76017,282.69533 c 2.27335,-2.89875 5.33191,-5.2378 5.98935,-4.58038 0.73751,0.73753 -5.07175,6.76788 -6.51975,6.76788 -0.65184,0 -0.41316,-0.98438 0.5304,-2.1875 z"
       style="fill:#df39fd;fill-opacity:1"
       inkscape:connector-curvature="0" />
    <path
       id="path4490"
       d="m 778.72572,262.82472 c -2.75,-2.44973 -10.47396,-8.37815 -17.16436,-13.17429 -12.26322,-8.79113 -24.71064,-19.98028 -24.71064,-22.21272 0,-0.66413 1.18482,-2.31132 2.63294,-3.66046 1.44812,-1.34912 2.2986,-2.99391 1.88997,-3.6551 -0.40864,-0.66118 -0.13502,-2.94612 0.60804,-5.07765 1.13165,-3.24624 1.72474,-3.67547 3.65285,-2.64358 3.26919,1.74961 4.26609,1.52565 2.52847,-0.56805 -0.8216,-0.98998 -2.71859,-1.97435 -4.21555,-2.1875 -2.35748,-0.33568 -2.77342,-1.29864 -3.10807,-7.19573 -0.40711,-7.17434 0.44014,-12.56681 1.97446,-12.56681 2.3029,0 20.43384,10.39009 19.34845,11.0878 -0.67354,0.43296 -1.61957,2.05283 -2.10232,3.5997 -0.78174,2.50499 -0.44949,2.8125 3.0387,2.8125 2.15402,0 5.11817,0.64316 6.58698,1.42925 2.00368,1.07232 2.78956,1.07232 3.14699,0 1.50344,-4.5103 15.60311,2.52189 24.13921,12.03937 6.94972,7.74873 15.59303,24.78973 13.71889,27.04792 -0.72067,0.86837 -3.68109,2.28915 -6.57867,3.15728 -3.59719,1.07774 -7.5571,3.91748 -12.48368,8.9523 -3.96844,4.05564 -7.36999,7.35047 -7.559,7.32184 -0.18901,-0.0286 -2.59366,-2.05635 -5.34366,-4.50607 z"
       style="fill:#df39fd;fill-opacity:1"
       inkscape:connector-curvature="0" />
    <path
       id="path4488"
       d="m 852.61691,254.88283 c -4.69738,-12.15655 -4.69868,-12.20518 -0.45606,-17.03724 7.40343,-8.43204 25.93294,-18.3261 33.18843,-17.72136 l 4.6022,0.3836 -9.36289,7.64787 c -9.10717,7.43902 -17.16378,15.63209 -23.93002,24.33535 -2.51287,3.23225 -3.49281,3.81217 -4.04166,2.39178 z"
       style="fill:#df39fd;fill-opacity:1"
       inkscape:connector-curvature="0" />
    <path
       id="path4486"
       d="m 810.85402,232.07033 c -6.43012,-13.6114 -11.87457,-20.01973 -23.00617,-27.07918 -3.21024,-2.03587 -6.81107,-5.18851 -8.00185,-7.00587 -2.02827,-3.09552 -2.03333,-3.5273 -0.0801,-6.83374 1.14669,-1.9412 2.08489,-4.41099 2.08489,-5.48844 0,-1.07745 1.40795,-5.14261 3.12877,-9.03371 l 3.12878,-7.07472 5.29714,0.7105 c 3.8424,0.51537 5.8939,0.17042 7.47016,-1.25608 1.97952,-1.79144 2.24345,-1.78302 2.96394,0.0945 0.435,1.13359 0.0966,2.89765 -0.75201,3.92014 -1.01761,1.22615 -1.08018,1.85909 -0.18382,1.85909 0.7475,0 1.92576,-1.05887 2.61839,-2.35304 1.6134,-3.01466 8.14577,-4.04411 10.53038,-1.65951 1.55509,1.55508 1.90179,1.44325 2.62903,-0.84807 0.70304,-2.2151 1.82718,-2.63938 6.99287,-2.63938 4.80143,0 6.49857,-0.54985 7.71645,-2.5 2.81169,-4.50223 5.71592,-3.10558 6.66208,3.20381 1.89011,12.60424 -2.08754,34.91546 -12.84156,72.03006 -0.53109,1.83286 -6.23567,4.76613 -9.26913,4.76613 -0.5695,0 -3.75919,-5.76563 -7.08817,-12.8125 z"
       style="fill:#df39fd;fill-opacity:1"
       inkscape:connector-curvature="0" />
    <path
       id="path4484"
       d="m 834.89663,235.19533 c 2.505,-14.24786 4.08282,-17.2304 12.88373,-24.35416 4.64495,-3.75978 12.06967,-10.57599 16.49939,-15.14715 4.42971,-4.57115 9.05588,-8.31119 10.28039,-8.31119 1.2245,0 3.0733,-1.63779 4.10845,-3.63953 1.399,-2.70537 2.53015,-3.47003 4.40711,-2.97921 3.64818,0.95403 3.17587,2.66175 -2.86773,10.36874 -6.68941,8.53056 -13.57304,19.31847 -15.7666,24.70917 -1.05047,2.58157 -5.41071,7.01145 -11.85139,12.0407 -5.60421,4.37609 -10.94456,8.86634 -11.86742,9.97833 -0.92288,1.11199 -2.79668,2.0218 -4.16401,2.0218 -2.18595,0 -2.38657,-0.56584 -1.66192,-4.6875 z"
       style="fill:#df39fd;fill-opacity:1"
       inkscape:connector-curvature="0" />
    <path
       id="path4482"
       d="m 682.40108,219.42782 c -17.28402,-15.17864 -21.32181,-19.1902 -20.32198,-20.19003 0.72462,-0.72463 8.12742,4.75845 24.14662,17.88488 16.34895,13.39664 16.875,13.87209 16.875,15.2519 0,3.67447 -6.16051,-0.17866 -20.69964,-12.94675 z"
       style="fill:#df39fd;fill-opacity:1"
       inkscape:connector-curvature="0" />
    <path
       id="path4480"
       d="m 715.46516,211.51358 c -7.55853,-8.89184 -33.01569,-35.95069 -44.36844,-47.15998 -3.66594,-3.61962 -15.496,-17.96517 -15.496,-18.79101 0,-2.48676 6.34112,0.37359 14.38731,6.48981 8.58146,6.52309 9.36363,7.48057 8.67438,10.6187 -0.63933,2.91083 -0.24187,3.6452 2.54675,4.70543 1.81737,0.69096 5.2196,1.2563 7.56051,1.2563 3.27967,0 4.89232,0.86039 7.0287,3.75 1.52487,2.0625 3.27761,3.75 3.89497,3.75 0.61738,0 4.08599,2.95312 7.70804,6.5625 3.62207,3.60937 10.09403,9.6212 14.38216,13.35961 l 7.79662,6.79711 -0.83238,6.95289 c -1.08542,9.06672 -1.95237,12.57789 -3.10562,12.57789 -0.51567,0 -5.0953,-4.89116 -10.177,-10.86925 z"
       style="fill:#df39fd;fill-opacity:1"
       inkscape:connector-curvature="0" />
    <path
       id="path4478"
       d="m 844.99276,199.57033 c 0.51348,-1.54688 1.19738,-10.29074 1.51977,-19.43079 l 0.58616,-16.6183 7.1973,-7.33266 c 3.95853,-4.03296 10.38769,-9.1332 14.28705,-11.33386 4.39892,-2.4826 8.52214,-6.08312 10.86377,-9.48655 2.07571,-3.01694 4.2603,-5.48534 4.85466,-5.48534 0.59435,0 4.3642,-2.69589 8.37744,-5.99086 9.61628,-7.89522 21.40893,-15.25914 24.43611,-15.25914 2.40837,0 0.59117,3.94876 -3.83863,8.34127 -4.9874,4.94545 -24.46288,28.95103 -29.74085,36.65873 -1.64772,2.40625 -4.6822,6.625 -6.7433,9.375 -2.06111,2.75 -5.49946,8.375 -7.6408,12.5 -3.66129,7.05301 -21.29883,26.875 -23.91328,26.875 -0.66598,0 -0.77276,-1.22383 -0.2454,-2.8125 z"
       style="fill:#df39fd;fill-opacity:1"
       inkscape:connector-curvature="0" />
    <path
       id="path4476"
       d="m 758.72572,190.23758 c -2.75,-1.10905 -7.93635,-3.93613 -11.52522,-6.2824 -3.58888,-2.34628 -7.03611,-3.95023 -7.66051,-3.56432 -0.62441,0.3859 -2.07382,2.67946 -3.22092,5.09681 -1.1471,2.41733 -2.56938,4.39516 -3.1606,4.39516 -3.64176,0 -17.64747,-21.68951 -24.61871,-38.125 -6.01145,-14.17271 -6.43294,-17.9375 -2.48509,-22.19731 3.94055,-4.25193 6.95454,-4.33264 11.30292,-0.30269 3.949,3.65981 4.8699,3.80833 7.08255,1.14225 2.8225,-3.4009 8.22522,-1.12735 16.02184,6.74225 5.55276,5.60473 8.84914,10.62994 14.22506,21.68556 10.37164,21.3294 14.08878,33.75915 10.0154,33.49053 -0.5372,-0.0354 -3.22672,-0.9718 -5.97672,-2.08084 z"
       style="fill:#df39fd;fill-opacity:1"
       inkscape:connector-curvature="0" />
    <path
       id="path4474"
       d="m 726.85072,136.13283 c 0,-0.6875 -0.5625,-1.25 -1.25,-1.25 -0.6875,0 -1.25,0.5625 -1.25,1.25 0,0.6875 0.5625,1.25 1.25,1.25 0.6875,0 1.25,-0.5625 1.25,-1.25 z"
       style="fill:#df39fd;fill-opacity:1"
       inkscape:connector-curvature="0" />
    <path
       id="path4472"
       d="m 732.50552,132.43104 c -0.64815,-1.04871 -1.35363,-1.02435 -2.70025,0.0933 -1.45883,1.21071 -1.5011,1.71174 -0.21166,2.50865 1.98966,1.22968 4.10937,-0.66436 2.91191,-2.6019 z"
       style="fill:#df39fd;fill-opacity:1"
       inkscape:connector-curvature="0" />
    <path
       id="path4470"
       d="m 765.08692,165.35414 c -3.84241,-7.99079 -6.9862,-14.78014 -6.9862,-15.08746 0,-0.30733 -2.57034,-4.79298 -5.71186,-9.96813 -3.14153,-5.17514 -5.71813,-10.33891 -5.72579,-11.47503 -0.007,-1.13613 0.30989,-8.25319 0.70565,-15.81569 0.39577,-7.5625 1.01647,-20.21875 1.37934,-28.125 0.64205,-13.98925 3.09977,-28.02659 7.94527,-45.37951 2.42022,-8.66735 3.90739,-11.69463 3.90739,-7.95383 0,1.14584 0.5625,2.08334 1.25,2.08334 0.6875,0 1.25,-0.77488 1.25,-1.72195 0,-0.94706 0.81031,-2.39444 1.8007,-3.21639 0.99039,-0.82195 1.50925,-2.25392 1.15305,-3.18218 -0.77516,-2.02006 3.15254,-4.31199 5.79625,-3.38229 1.58464,0.55725 1.61817,0.34817 0.21655,-1.35012 -2.38581,-2.89076 -1.39916,-7.77207 1.57094,-7.77207 3.55776,0 8.18712,8.93047 13.60741,26.25 2.58191,8.25 5.21905,16.6293 5.8603,18.62067 0.64126,1.99138 0.8739,4.09319 0.51698,4.67072 -0.35693,0.57751 -0.0113,3.16696 0.76908,5.75431 0.77993,2.58736 2.1787,7.79805 3.1084,11.5793 0.92969,3.78125 2.33234,9.125 3.11699,11.875 0.78465,2.75 1.93716,8.22967 2.56114,12.17705 1.14525,7.24506 3.99835,21.3792 5.50377,27.2655 0.71675,2.80251 -0.37606,4.273 -8.94503,12.03644 -7.42733,6.72912 -11.8133,12.16796 -18.34198,22.74496 -4.71925,7.64557 -8.74734,13.90105 -8.9513,13.90105 -0.20396,0 -3.51464,-6.53791 -7.35705,-14.52869 z"
       style="fill:#df39fd;fill-opacity:1"
       inkscape:connector-curvature="0" />
    <path
       id="path4468"
       d="m 779.03471,57.70587 c 0.81865,-2.45597 -7.23966,-10.32304 -10.57399,-10.32304 -2.69459,0 -3.02438,0.42491 -2.36593,3.04839 0.42082,1.67662 0.20054,3.39732 -0.48948,3.82377 -1.45207,0.89743 -1.71094,5.57714 -0.31709,5.732 0.51562,0.0572 2.20285,0.24453 3.74939,0.41606 1.54653,0.17154 3.19099,0.69099 3.65433,1.15433 0.97808,0.97809 5.68579,-1.88057 6.34277,-3.85151 z"
       style="fill:#df39fd;fill-opacity:1"
       inkscape:connector-curvature="0" />
    <path
       id="path4466"
       d="m 772.26546,43.52539 c 0.80314,-0.0591 -0.19897,-0.603 -2.2269,-1.20867 -4.0604,-1.21269 -5.1441,-0.83792 -3.81156,1.31816 0.48212,0.78011 1.70946,1.09879 2.7274,0.70816 1.01793,-0.39061 2.50791,-0.75856 3.31106,-0.81765 z"
       style="fill:#df39fd;fill-opacity:1"
       inkscape:connector-curvature="0" />
    <path
       id="path4464"
       d="m 844.92959,139.25783 c -0.47856,-4.46875 -0.47856,-11.78125 0,-16.25 0.82765,-7.7285 0.74023,-8.125 -1.79146,-8.125 -1.46386,0 -4.38576,0.89161 -6.49311,1.98138 -4.93218,2.55052 -6.94774,0.76178 -3.75196,-3.32973 1.30022,-1.66466 3.62446,-5.50876 5.16497,-8.54245 5.4582,-10.7487 20.99434,-31.79049 23.83893,-32.28692 4.41882,-0.77115 5.28514,1.49777 3.27348,8.57346 -1.05223,3.7011 -3.14152,15.99727 -4.64287,27.32485 -3.03933,22.93142 -4.93786,30.61715 -8.76495,35.4825 -4.23986,5.39011 -5.86146,4.24431 -6.83303,-4.82809 z"
       style="fill:#df39fd;fill-opacity:1"
       inkscape:connector-curvature="0" />
    <path
       id="path4462"
       d="m 689.54067,132.69533 c -3.34557,-6.70313 -7.63656,-15.84375 -9.53553,-20.3125 -5.13042,-12.07316 -13.14973,-27.78179 -15.6342,-30.625 -2.79437,-3.19789 -4.31763,-10.62828 -2.17647,-10.61676 3.70539,0.0199 18.82689,12.89815 20.18784,17.19297 0.49257,1.55441 2.40332,3.60589 4.24611,4.55884 3.73621,1.93206 5.96464,8.02744 7.12539,19.48995 0.95358,9.41666 3.12199,26.26729 3.8203,29.6875 1.28513,6.29429 -2.30237,2.10769 -8.03344,-9.375 z"
       style="fill:#df39fd;fill-opacity:1"
       inkscape:connector-curvature="0" />
    <path
       id="path4460"
       d="m 812.56237,119.78468 c -3.77684,-12.718 -3.81691,-14.75283 -0.36279,-18.42205 1.93683,-2.05746 4.22688,-7.22192 5.92183,-13.3548 1.52003,-5.5 3.47518,-11.40625 4.34477,-13.125 0.86959,-1.71875 3.97982,-10.15625 6.9116,-18.75 7.45969,-21.86608 7.81809,-22.46981 13.44254,-22.645 2.64695,-0.0825 3.57684,-0.40442 2.1554,-0.74634 -3.6193,-0.87055 -5.12259,-2.61107 -3.58403,-4.14963 2.02449,-2.02449 5.42362,-0.018 7.21738,4.26041 1.36573,3.25745 1.34844,4.47972 -0.10412,7.36552 -1.53404,3.04759 -1.50293,3.55155 0.26112,4.22848 1.1015,0.42269 2.63993,0.13132 3.41871,-0.64746 1.75545,-1.75545 5.5033,-1.84498 6.5469,-0.15639 0.42817,0.69277 -0.10637,2.14437 -1.18771,3.22577 -2.1662,2.1662 -1.5484,4.26464 1.25556,4.26464 0.99068,0 1.80123,0.27453 1.80123,0.61005 0,2.54985 -21.50311,40.15281 -25.99101,45.45106 -7.66629,9.05052 -11.19569,14.40919 -14.68094,22.28995 -1.61726,3.65692 -3.51214,6.64894 -4.21084,6.64894 -0.6987,0 -2.1187,-2.85666 -3.15556,-6.34815 z"
       style="fill:#df39fd;fill-opacity:1"
       inkscape:connector-curvature="0" />
    <path
       id="path4458"
       d="m 728.92465,106.44533 c -8.81622,-10.12853 -9.81418,-11.86205 -13.49253,-23.4375 -2.18469,-6.875 -5.08854,-14.74241 -6.453,-17.48313 -2.68507,-5.39335 -8.7534,-21.49476 -11.61226,-30.81143 -0.97795,-3.18702 -3.81436,-10.21827 -6.30313,-15.625 -6.7383,-14.6386897 -11.71301,-26.8353397 -11.71301,-28.7171897 0,-1.1848903 1.7195,-0.7605203 5.9375,1.46535 4.48684,2.36772 7.08276,5.01043 10.625,10.81641 2.57812,4.22575 4.6875,8.3338697 4.6875,9.1291697 0,1.96903 11.124,24.25908 13.93491,27.92249 4.2554,5.54598 18.53794,38.8956 18.559,43.33516 0.004,0.70499 1.67594,4.64249 3.71686,8.75 3.06642,6.17136 3.71758,9.04182 3.75,16.53067 0.0216,4.98437 -0.44581,9.0625 -1.03862,9.0625 -0.59282,0 -5.36203,-4.92188 -10.59822,-10.9375 z"
       style="fill:#df39fd;fill-opacity:1"
       inkscape:connector-curvature="0" />
    <path
       id="path4456"
       d="m 866.89567,112.11466 c -0.0727,-5.49593 4.5572,-27.65652 6.75144,-32.31436 6.03972,-12.82088 10.63327,-17.6612 12.39756,-13.06355 0.39269,1.02333 1.54547,1.53388 2.57307,1.13955 2.90357,-1.11421 1.00747,7.86455 -2.90496,13.75602 -1.78038,2.68097 -3.64636,5.49347 -4.14662,6.25 -0.50027,0.75653 -2.64149,5.62497 -4.75828,10.81875 -2.1168,5.19378 -5.20289,11.10003 -6.85799,13.125 l -3.00926,3.68176 -0.045,-3.39317 z"
       style="fill:#df39fd;fill-opacity:1"
       inkscape:connector-curvature="0" />
    <path
       id="path4454"
       d="m 805.00611,81.49192 c -3.29729,-18.41879 -6.68991,-32.76713 -9.39502,-39.73409 -1.3347,-3.4375 -6.06996,-15.25 -10.5228,-26.25 -4.45283,-10.9999997 -8.46433,-21.5237997 -8.91446,-23.3862297 -0.45011,-1.86242 -1.60696,-4.0406703 -2.57075,-4.8405603 -2.31436,-1.92074 -2.2269,-3.64821 0.18472,-3.64821 3.41324,0 8.97377,-3.56809 9.66202,-6.19994 1.13339,-4.33407 12.1509,-2.6241 12.1509,1.88588 0,1.01638 0.70312,2.98251 1.5625,4.36916 1.28787,2.07806 1.23295,2.73081 -0.3125,3.7139 -1.06085,0.67482 -1.24314,1.20102 -0.41981,1.21186 0.80035,0.01 3.47222,1.9779503 5.9375,4.3720503 3.55416,3.45156 4.49014,5.32813 4.52012,9.0625 0.0208,2.59028 1.47694,9.7720897 3.23588,15.9595897 1.75894,6.1875 4.27427,16.49217 5.58965,22.89928 1.31536,6.40709 2.93665,12.66774 3.60285,13.91255 0.88152,1.64713 0.17459,5.45183 -2.59678,13.97573 -2.09442,6.44184 -4.52576,14.49708 -5.40297,17.90052 -0.8772,3.40345 -2.16327,6.37753 -2.85793,6.60908 -0.7027,0.23424 -2.23461,-5.0064 -3.45312,-11.81307 z"
       style="fill:#df39fd;fill-opacity:1"
       inkscape:connector-curvature="0" />
    <path
       id="path4452"
       d="m 863.10072,69.34477 c 0,-1.27628 1.12854,-1.96194 3.22916,-1.96194 3.9159,0 3.4873,2.93559 -0.51457,3.52444 -1.80276,0.26526 -2.71459,-0.25958 -2.71459,-1.5625 z"
       style="fill:#df39fd;fill-opacity:1"
       inkscape:connector-curvature="0" />
    <path
       id="path4450"
       d="m 733.67901,64.57033 c -0.46212,-1.54688 -4.28122,-10.125 -8.48689,-19.0625 l -7.6467,-16.25 0.0505,-19.3749997 c 0.0624,-23.9304003 0.52305,-28.2046803 3.00481,-27.8788103 5.78203,0.7592 11.50074,2.94282 15.30386,5.84361 4.47563,3.4137403 7.19613,4.1831503 7.19613,2.0352 0,-0.6875 1.125,-1.25 2.5,-1.25 1.375,0 2.5,0.22165 2.5,0.49256 0,7.2208403 -4.11649,36.19008 -10.05453,70.75744 -0.64955,3.78125 -1.18424,7.01562 -1.18823,7.1875 -0.004,0.17187 -0.53184,0.3125 -1.173,0.3125 -0.64118,0 -1.54385,-1.26563 -2.00595,-2.8125 z"
       style="fill:#df39fd;fill-opacity:1"
       inkscape:connector-curvature="0" />
    <path
       id="path4448"
       d="m 822.70532,41.679 c -2.77683,-9.44 -2.31236,-13.56335 3.37036,-29.92117 11.49565,-33.09043 15.0585,-42.53991 16.6471,-44.15179 0.89536,-0.90847 1.62794,-2.97316 1.62794,-4.58817 0,-2.2463 0.88131,-3.12997 3.75,-3.76004 4.36751,-0.95927 4.87234,-2.53993 1.12422,-3.52008 -1.44585,-0.3781 -2.25525,-1.28616 -1.80122,-2.02078 1.10727,-1.79162 3.47337,-1.68206 6.16405,0.28542 2.0374,1.48978 2.10195,2.66671 0.80564,14.6875 -1.82102,16.88631 -2.153,18.30325 -4.94174,21.09199 -2.43506,2.4350603 -20.49629,40.8981 -21.76519,46.35095 -0.39995,1.71875 -1.52409,4.21452 -2.49807,5.54617 -1.75167,2.3949 -1.77862,2.3949 -2.48309,0 z"
       style="fill:#df39fd;fill-opacity:1"
       inkscape:connector-curvature="0" />
    <path
       id="path4170"
       d="m 849.35072,14.3316 c 0,-0.99067 0.5625,-2.14887 1.25,-2.57377 0.6875,-0.4249 1.25,0.38565 1.25,1.80122 0,1.41558 -0.5625,2.57378 -1.25,2.57378 -0.6875,0 -1.25,-0.81055 -1.25,-1.80123 z"
       style="fill:#df39fd;fill-opacity:1"
       inkscape:connector-curvature="0" />
  </g>
</svg>
